<?xml version="1.0" encoding="utf-8"?>
<!-- Generator: Adobe Illustrator 16.0.0, SVG Export Plug-In . SVG Version: 6.00 Build 0)  -->
<!DOCTYPE svg PUBLIC "-//W3C//DTD SVG 1.1//EN" "http://www.w3.org/Graphics/SVG/1.1/DTD/svg11.dtd">
<svg version="1.1" id="图层_1" xmlns="http://www.w3.org/2000/svg" xmlns:xlink="http://www.w3.org/1999/xlink" x="0px" y="0px"
	 width="800px" height="400px" viewBox="0 0 800 400" enable-background="new 0 0 800 400" xml:space="preserve">
<rect x="216.922" y="78.046" fill="#120507" stroke="#8C8C8C" stroke-miterlimit="10" width="0.263" height="16.558"/>
<rect x="239.389" y="78.071" fill="#120507" stroke="#8C8C8C" stroke-miterlimit="10" width="0.261" height="3.8"/>
<rect x="216.92" y="77.974" fill="#120507" stroke="#8C8C8C" stroke-miterlimit="10" width="108.51" height="0.194"/>
<rect x="216.925" y="78.958" fill="#120507" stroke="#8C8C8C" stroke-miterlimit="10" width="22.729" height="0.195"/>
<rect x="216.92" y="79.873" fill="#120507" stroke="#8C8C8C" stroke-miterlimit="10" width="22.729" height="0.195"/>
<rect x="216.92" y="80.965" fill="#120507" stroke="#8C8C8C" stroke-miterlimit="10" width="22.729" height="0.193"/>
<rect x="243.32" y="78.071" fill="#120507" stroke="#8C8C8C" stroke-miterlimit="10" width="0.262" height="3.8"/>
<rect x="243.586" y="78.97" fill="#120507" stroke="#8C8C8C" stroke-miterlimit="10" width="26.57" height="0.195"/>
<rect x="243.582" y="79.886" fill="#120507" stroke="#8C8C8C" stroke-miterlimit="10" width="26.57" height="0.194"/>
<rect x="243.582" y="80.976" fill="#120507" stroke="#8C8C8C" stroke-miterlimit="10" width="26.57" height="0.194"/>
<rect x="270.152" y="78.08" fill="#120507" stroke="#8C8C8C" stroke-miterlimit="10" width="0.261" height="3.802"/>
<rect x="274.083" y="78.08" fill="#120507" stroke="#8C8C8C" stroke-miterlimit="10" width="0.26" height="3.802"/>
<rect x="274.218" y="78.98" fill="#120507" stroke="#8C8C8C" stroke-miterlimit="10" width="32.463" height="0.193"/>
<rect x="274.211" y="79.895" fill="#120507" stroke="#8C8C8C" stroke-miterlimit="10" width="32.465" height="0.194"/>
<rect x="274.211" y="80.984" fill="#120507" stroke="#8C8C8C" stroke-miterlimit="10" width="32.465" height="0.196"/>
<rect x="306.547" y="78.091" fill="#120507" stroke="#8C8C8C" stroke-miterlimit="10" width="0.26" height="3.801"/>
<rect x="310.475" y="78.091" fill="#120507" stroke="#8C8C8C" stroke-miterlimit="10" width="0.261" height="3.801"/>
<rect x="321.239" y="78.091" fill="#120507" stroke="#8C8C8C" stroke-miterlimit="10" width="0.26" height="3.801"/>
<rect x="325.171" y="78.091" fill="#120507" stroke="#8C8C8C" stroke-miterlimit="10" width="0.26" height="3.801"/>
<rect x="310.609" y="78.989" fill="#120507" stroke="#8C8C8C" stroke-miterlimit="10" width="10.896" height="0.194"/>
<rect x="310.606" y="79.905" fill="#120507" stroke="#8C8C8C" stroke-miterlimit="10" width="10.897" height="0.193"/>
<rect x="310.606" y="80.994" fill="#120507" stroke="#8C8C8C" stroke-miterlimit="10" width="10.897" height="0.194"/>
<rect x="212.697" y="81.808" fill="#120507" stroke="#8C8C8C" stroke-miterlimit="10" width="114.433" height="0.195"/>
<rect x="326.869" y="81.78" fill="#120507" stroke="#8C8C8C" stroke-miterlimit="10" width="0.261" height="14.039"/>
<rect x="212.697" y="81.78" fill="#120507" stroke="#8C8C8C" stroke-miterlimit="10" width="0.26" height="15.377"/>
<rect x="188.164" y="97.157" fill="#120507" stroke="#8C8C8C" stroke-miterlimit="10" width="0.261" height="214.176"/>
<rect x="188.164" y="97.059" fill="#120507" stroke="#8C8C8C" stroke-miterlimit="10" width="24.793" height="0.196"/>
<rect x="180.319" y="172.685" fill="#120507" stroke="#8C8C8C" stroke-miterlimit="10" width="8.105" height="0.193"/>
<rect x="180.319" y="233.568" fill="#120507" stroke="#8C8C8C" stroke-miterlimit="10" width="8.105" height="0.195"/>
<rect x="180.319" y="172.685" fill="#120507" stroke="#8C8C8C" stroke-miterlimit="10" width="0.261" height="61.079"/>
<rect x="356.909" y="82.408" fill="#120507" stroke="#8C8C8C" stroke-miterlimit="10" width="0.26" height="13.411"/>
<rect x="352.847" y="82.408" fill="#120507" stroke="#8C8C8C" stroke-miterlimit="10" width="0.262" height="13.411"/>
<rect x="331.298" y="82.408" fill="#120507" stroke="#8C8C8C" stroke-miterlimit="10" width="0.263" height="13.411"/>
<rect x="326.869" y="82.408" fill="#120507" stroke="#8C8C8C" stroke-miterlimit="10" width="30.301" height="0.195"/>
<rect x="331.438" y="83.553" fill="#120507" stroke="#8C8C8C" stroke-miterlimit="10" width="21.677" height="0.194"/>
<rect x="331.438" y="84.541" fill="#120507" stroke="#8C8C8C" stroke-miterlimit="10" width="21.677" height="0.194"/>
<rect x="331.438" y="85.527" fill="#120507" stroke="#8C8C8C" stroke-miterlimit="10" width="21.677" height="0.193"/>
<rect x="331.438" y="86.512" fill="#120507" stroke="#8C8C8C" stroke-miterlimit="10" width="21.677" height="0.195"/>
<rect x="331.438" y="87.5" fill="#120507" stroke="#8C8C8C" stroke-miterlimit="10" width="21.677" height="0.194"/>
<rect x="331.438" y="88.486" fill="#120507" stroke="#8C8C8C" stroke-miterlimit="10" width="21.677" height="0.194"/>
<rect x="331.438" y="89.474" fill="#120507" stroke="#8C8C8C" stroke-miterlimit="10" width="21.677" height="0.193"/>
<rect x="331.438" y="90.459" fill="#120507" stroke="#8C8C8C" stroke-miterlimit="10" width="21.677" height="0.194"/>
<rect x="331.438" y="91.445" fill="#120507" stroke="#8C8C8C" stroke-miterlimit="10" width="21.677" height="0.195"/>
<rect x="331.438" y="92.433" fill="#120507" stroke="#8C8C8C" stroke-miterlimit="10" width="21.677" height="0.194"/>
<rect x="331.438" y="93.419" fill="#120507" stroke="#8C8C8C" stroke-miterlimit="10" width="21.677" height="0.195"/>
<rect x="331.438" y="94.406" fill="#120507" stroke="#8C8C8C" stroke-miterlimit="10" width="21.677" height="0.193"/>
<rect x="216.922" y="87.102" fill="#120507" stroke="#8C8C8C" stroke-miterlimit="10" width="110.208" height="0.194"/>
<rect x="310.708" y="88.292" fill="#120507" stroke="#8C8C8C" stroke-miterlimit="10" width="15.334" height="0.195"/>
<rect x="310.708" y="89.429" fill="#120507" stroke="#8C8C8C" stroke-miterlimit="10" width="15.334" height="0.194"/>
<rect x="290.449" y="90.459" fill="#120507" stroke="#8C8C8C" stroke-miterlimit="10" width="35.592" height="0.194"/>
<rect x="310.448" y="87.102" fill="#120507" stroke="#8C8C8C" stroke-miterlimit="10" width="0.26" height="3.551"/>
<rect x="306.516" y="87.102" fill="#120507" stroke="#8C8C8C" stroke-miterlimit="10" width="0.261" height="3.551"/>
<rect x="290.445" y="88.234" fill="#120507" stroke="#8C8C8C" stroke-miterlimit="10" width="16.202" height="0.194"/>
<rect x="290.445" y="89.429" fill="#120507" stroke="#8C8C8C" stroke-miterlimit="10" width="16.202" height="0.194"/>
<rect x="290.184" y="87.199" fill="#120507" stroke="#8C8C8C" stroke-miterlimit="10" width="0.26" height="7.38"/>
<rect x="285.771" y="87.199" fill="#120507" stroke="#8C8C8C" stroke-miterlimit="10" width="0.26" height="7.38"/>
<rect x="325.911" y="87.199" fill="#120507" stroke="#8C8C8C" stroke-miterlimit="10" width="0.263" height="7.38"/>
<rect x="243.281" y="88.389" fill="#120507" stroke="#8C8C8C" stroke-miterlimit="10" width="27.104" height="0.194"/>
<rect x="243.281" y="89.526" fill="#120507" stroke="#8C8C8C" stroke-miterlimit="10" width="27.104" height="0.193"/>
<rect x="221.651" y="90.555" fill="#120507" stroke="#8C8C8C" stroke-miterlimit="10" width="64.379" height="0.194"/>
<rect x="243.281" y="87.199" fill="#120507" stroke="#8C8C8C" stroke-miterlimit="10" width="0.26" height="3.551"/>
<rect x="239.352" y="87.199" fill="#120507" stroke="#8C8C8C" stroke-miterlimit="10" width="0.26" height="3.551"/>
<rect x="221.647" y="88.332" fill="#120507" stroke="#8C8C8C" stroke-miterlimit="10" width="17.938" height="0.194"/>
<rect x="221.647" y="89.526" fill="#120507" stroke="#8C8C8C" stroke-miterlimit="10" width="17.938" height="0.193"/>
<rect x="221.388" y="87.296" fill="#120507" stroke="#8C8C8C" stroke-miterlimit="10" width="0.26" height="7.38"/>
<rect x="274.083" y="87.101" fill="#120507" stroke="#8C8C8C" stroke-miterlimit="10" width="0.26" height="3.55"/>
<rect x="270.152" y="87.101" fill="#120507" stroke="#8C8C8C" stroke-miterlimit="10" width="0.261" height="3.55"/>
<rect x="274.135" y="88.389" fill="#120507" stroke="#8C8C8C" stroke-miterlimit="10" width="11.898" height="0.194"/>
<rect x="274.135" y="89.526" fill="#120507" stroke="#8C8C8C" stroke-miterlimit="10" width="11.898" height="0.193"/>
<rect x="212.957" y="94.509" fill="#120507" stroke="#8C8C8C" stroke-miterlimit="10" width="114.173" height="0.194"/>
<rect x="357.698" y="79.817" fill="#120507" stroke="#8C8C8C" stroke-miterlimit="10" width="13.557" height="0.194"/>
<rect x="357.567" y="79.809" fill="#120507" stroke="#8C8C8C" stroke-miterlimit="10" width="0.262" height="16.011"/>
<rect x="357.698" y="80.876" fill="#120507" stroke="#8C8C8C" stroke-miterlimit="10" width="13.557" height="0.193"/>
<rect x="357.698" y="82.213" fill="#120507" stroke="#8C8C8C" stroke-miterlimit="10" width="13.557" height="0.195"/>
<rect x="363.807" y="89.798" fill="#120507" stroke="#8C8C8C" stroke-miterlimit="10" width="7.359" height="0.194"/>
<rect x="363.807" y="90.859" fill="#120507" stroke="#8C8C8C" stroke-miterlimit="10" width="7.359" height="0.194"/>
<rect x="363.807" y="92.197" fill="#120507" stroke="#8C8C8C" stroke-miterlimit="10" width="7.359" height="0.194"/>
<rect x="371.166" y="78.624" fill="none" stroke="#8C8C8C" stroke-width="2" stroke-miterlimit="10" width="4.597" height="5.04"/>
<rect x="394.883" y="78.624" fill="none" stroke="#8C8C8C" stroke-width="2" stroke-miterlimit="10" width="4.596" height="5.04"/>
<rect x="430.459" y="78.624" fill="none" stroke="#8C8C8C" stroke-width="2" stroke-miterlimit="10" width="4.597" height="5.04"/>
<rect x="468.3" y="78.624" fill="none" stroke="#8C8C8C" stroke-width="2" stroke-miterlimit="10" width="4.598" height="5.04"/>
<rect x="375.763" y="79.849" fill="#120507" stroke="#8C8C8C" stroke-miterlimit="10" width="19.12" height="0.193"/>
<rect x="375.763" y="80.908" fill="#120507" stroke="#8C8C8C" stroke-miterlimit="10" width="19.12" height="0.195"/>
<rect x="375.763" y="82.247" fill="#120507" stroke="#8C8C8C" stroke-miterlimit="10" width="19.12" height="0.194"/>
<rect x="399.436" y="79.849" fill="#120507" stroke="#8C8C8C" stroke-miterlimit="10" width="31.112" height="0.193"/>
<rect x="399.436" y="80.908" fill="#120507" stroke="#8C8C8C" stroke-miterlimit="10" width="31.112" height="0.195"/>
<rect x="399.436" y="82.247" fill="#120507" stroke="#8C8C8C" stroke-miterlimit="10" width="31.112" height="0.194"/>
<rect x="435.056" y="79.806" fill="#120507" stroke="#8C8C8C" stroke-miterlimit="10" width="33.254" height="0.195"/>
<rect x="435.056" y="80.867" fill="#120507" stroke="#8C8C8C" stroke-miterlimit="10" width="33.254" height="0.193"/>
<rect x="435.056" y="82.205" fill="#120507" stroke="#8C8C8C" stroke-miterlimit="10" width="33.254" height="0.193"/>
<rect x="472.786" y="79.806" fill="#120507" stroke="#8C8C8C" stroke-miterlimit="10" width="25.071" height="0.195"/>
<rect x="472.786" y="80.867" fill="#120507" stroke="#8C8C8C" stroke-miterlimit="10" width="25.071" height="0.193"/>
<rect x="472.786" y="82.205" fill="#120507" stroke="#8C8C8C" stroke-miterlimit="10" width="25.071" height="0.193"/>
<rect x="371.166" y="89.113" fill="none" stroke="#8C8C8C" stroke-width="2" stroke-miterlimit="10" width="4.597" height="5.042"/>
<rect x="394.883" y="89.113" fill="none" stroke="#8C8C8C" stroke-width="2" stroke-miterlimit="10" width="4.596" height="5.042"/>
<rect x="430.459" y="89.113" fill="none" stroke="#8C8C8C" stroke-width="2" stroke-miterlimit="10" width="4.597" height="5.042"/>
<rect x="375.763" y="89.757" fill="#120507" stroke="#8C8C8C" stroke-miterlimit="10" width="19.12" height="0.193"/>
<rect x="375.763" y="90.815" fill="#120507" stroke="#8C8C8C" stroke-miterlimit="10" width="19.12" height="0.194"/>
<rect x="375.763" y="92.155" fill="#120507" stroke="#8C8C8C" stroke-miterlimit="10" width="19.12" height="0.194"/>
<rect x="399.437" y="89.853" fill="#120507" stroke="#8C8C8C" stroke-miterlimit="10" width="31.111" height="0.193"/>
<rect x="399.437" y="90.913" fill="#120507" stroke="#8C8C8C" stroke-miterlimit="10" width="31.111" height="0.194"/>
<rect x="399.437" y="92.252" fill="#120507" stroke="#8C8C8C" stroke-miterlimit="10" width="31.111" height="0.194"/>
<rect x="435.056" y="89.811" fill="#120507" stroke="#8C8C8C" stroke-miterlimit="10" width="33.511" height="0.194"/>
<rect x="435.056" y="90.872" fill="#120507" stroke="#8C8C8C" stroke-miterlimit="10" width="33.511" height="0.193"/>
<rect x="435.056" y="92.208" fill="#120507" stroke="#8C8C8C" stroke-miterlimit="10" width="33.511" height="0.194"/>
<rect x="468.565" y="84.069" fill="none" stroke="#8C8C8C" stroke-width="2" stroke-miterlimit="10" width="13.224" height="14.923"/>
<rect x="470.73" y="85.73" fill="none" stroke="#8C8C8C" stroke-width="2" stroke-miterlimit="10" width="8.961" height="11.625"/>
<rect x="497.729" y="79.806" fill="none" stroke="#8C8C8C" stroke-width="2" stroke-miterlimit="10" width="6.679" height="15.294"/>
<rect x="357.567" y="95.736" fill="#120507" stroke="#8C8C8C" stroke-miterlimit="10" width="186.125" height="0.195"/>
<rect x="326.869" y="95.794" fill="#120507" stroke="#8C8C8C" stroke-miterlimit="10" width="26.237" height="0.194"/>
<rect x="504.407" y="84.895" fill="none" stroke="#8C8C8C" stroke-width="2" stroke-miterlimit="10" width="30.825" height="11.063"/>
<rect x="188.294" y="311.139" fill="#120507" stroke="#8C8C8C" stroke-miterlimit="10" width="355.376" height="0.194"/>
<rect x="220.103" y="314.75" fill="#120507" stroke="#8C8C8C" stroke-miterlimit="10" width="10.842" height="0.194"/>
<rect x="231.828" y="314.75" fill="#120507" stroke="#8C8C8C" stroke-miterlimit="10" width="9.227" height="0.194"/>
<rect x="220.17" y="315.903" fill="#120507" stroke="#8C8C8C" stroke-miterlimit="10" width="10.775" height="0.193"/>
<rect x="231.828" y="315.903" fill="#120507" stroke="#8C8C8C" stroke-miterlimit="10" width="9.227" height="0.193"/>
<rect x="222.269" y="317.005" fill="#120507" stroke="#8C8C8C" stroke-miterlimit="10" width="18.787" height="0.194"/>
<rect x="240.912" y="311.235" fill="none" stroke="#8C8C8C" stroke-width="2" stroke-miterlimit="10" width="10.204" height="8.262"/>
<rect x="219.054" y="311.235" fill="none" stroke="#8C8C8C" stroke-width="2" stroke-miterlimit="10" width="1.049" height="2.938"/>
<rect x="230.879" y="311.235" fill="none" stroke="#8C8C8C" stroke-width="2" stroke-miterlimit="10" width="1.051" height="5.866"/>
<rect x="251.115" y="311.139" fill="none" stroke="#8C8C8C" stroke-width="2" stroke-miterlimit="10" width="6.828" height="6.061"/>
<rect x="287.824" y="313.94" fill="none" stroke="#8C8C8C" stroke-width="2" stroke-miterlimit="10" width="5.363" height="6.061"/>
<rect x="326.108" y="311.333" fill="none" stroke="#8C8C8C" stroke-width="2" stroke-miterlimit="10" width="3.586" height="7.998"/>
<rect x="257.943" y="314.75" fill="#120507" stroke="#8C8C8C" stroke-miterlimit="10" width="29.879" height="0.194"/>
<rect x="257.943" y="315.903" fill="#120507" stroke="#8C8C8C" stroke-miterlimit="10" width="29.879" height="0.193"/>
<rect x="257.943" y="317.103" fill="#120507" stroke="#8C8C8C" stroke-miterlimit="10" width="29.879" height="0.195"/>
<rect x="293.187" y="314.725" fill="#120507" stroke="#8C8C8C" stroke-miterlimit="10" width="32.922" height="0.195"/>
<rect x="293.187" y="315.879" fill="#120507" stroke="#8C8C8C" stroke-miterlimit="10" width="32.922" height="0.194"/>
<rect x="293.187" y="317.078" fill="#120507" stroke="#8C8C8C" stroke-miterlimit="10" width="32.922" height="0.193"/>
<rect x="329.693" y="311.333" fill="none" stroke="#8C8C8C" stroke-width="2" stroke-miterlimit="10" width="1.3" height="7.998"/>
<rect x="330.993" y="318.488" fill="none" stroke="#8C8C8C" stroke-width="2" stroke-miterlimit="10" width="20.754" height="0.844"/>
<rect x="334.746" y="317.003" fill="none" stroke="#8C8C8C" stroke-width="2" stroke-miterlimit="10" width="17.001" height="1.485"/>
<rect x="335.567" y="311.234" fill="none" stroke="#8C8C8C" stroke-width="2" stroke-miterlimit="10" width="14.867" height="5.767"/>
<rect x="336.781" y="311.221" fill="#120507" stroke="#8C8C8C" stroke-miterlimit="10" width="0.261" height="5.766"/>
<rect x="338.132" y="311.221" fill="#120507" stroke="#8C8C8C" stroke-miterlimit="10" width="0.26" height="5.766"/>
<rect x="339.481" y="311.221" fill="#120507" stroke="#8C8C8C" stroke-miterlimit="10" width="0.262" height="5.766"/>
<rect x="342.182" y="311.221" fill="#120507" stroke="#8C8C8C" stroke-miterlimit="10" width="0.263" height="5.766"/>
<rect x="340.833" y="311.221" fill="#120507" stroke="#8C8C8C" stroke-miterlimit="10" width="0.262" height="5.766"/>
<rect x="343.531" y="311.221" fill="#120507" stroke="#8C8C8C" stroke-miterlimit="10" width="0.26" height="5.766"/>
<rect x="344.882" y="311.221" fill="#120507" stroke="#8C8C8C" stroke-miterlimit="10" width="0.26" height="5.766"/>
<rect x="346.231" y="311.221" fill="#120507" stroke="#8C8C8C" stroke-miterlimit="10" width="0.26" height="5.766"/>
<rect x="347.581" y="311.221" fill="#120507" stroke="#8C8C8C" stroke-miterlimit="10" width="0.263" height="5.766"/>
<rect x="348.932" y="311.221" fill="#120507" stroke="#8C8C8C" stroke-miterlimit="10" width="0.261" height="5.766"/>
<rect x="358.242" y="307.566" fill="none" stroke="#8C8C8C" stroke-width="2" stroke-miterlimit="10" width="9.904" height="14.574"/>
<rect x="359.208" y="309.055" fill="none" stroke="#8C8C8C" stroke-width="2" stroke-miterlimit="10" width="6.775" height="11.542"/>
<rect x="368.124" y="314.754" fill="#120507" stroke="#8C8C8C" stroke-miterlimit="10" width="26.76" height="0.194"/>
<rect x="368.124" y="315.926" fill="#120507" stroke="#8C8C8C" stroke-miterlimit="10" width="26.76" height="0.194"/>
<rect x="368.124" y="317.1" fill="#120507" stroke="#8C8C8C" stroke-miterlimit="10" width="26.76" height="0.195"/>
<rect x="400.104" y="314.852" fill="#120507" stroke="#8C8C8C" stroke-miterlimit="10" width="30.788" height="0.194"/>
<rect x="400.104" y="316.023" fill="#120507" stroke="#8C8C8C" stroke-miterlimit="10" width="30.788" height="0.194"/>
<rect x="400.104" y="317.198" fill="#120507" stroke="#8C8C8C" stroke-miterlimit="10" width="30.788" height="0.193"/>
<rect x="435.943" y="314.754" fill="#120507" stroke="#8C8C8C" stroke-miterlimit="10" width="32.522" height="0.194"/>
<rect x="435.943" y="315.926" fill="#120507" stroke="#8C8C8C" stroke-miterlimit="10" width="32.522" height="0.194"/>
<rect x="435.943" y="317.1" fill="#120507" stroke="#8C8C8C" stroke-miterlimit="10" width="32.522" height="0.195"/>
<rect x="394.883" y="313.962" fill="none" stroke="#8C8C8C" stroke-width="2" stroke-miterlimit="10" width="5.221" height="5.913"/>
<rect x="430.892" y="313.962" fill="none" stroke="#8C8C8C" stroke-width="2" stroke-miterlimit="10" width="5.053" height="5.913"/>
<rect x="470.709" y="311.235" fill="none" stroke="#8C8C8C" stroke-width="2" stroke-miterlimit="10" width="9.005" height="9.517"/>
<rect x="468.467" y="311.235" fill="none" stroke="#8C8C8C" stroke-width="2" stroke-miterlimit="10" width="13.225" height="11.186"/>
<rect x="481.69" y="311.235" fill="none" stroke="#8C8C8C" stroke-width="2" stroke-miterlimit="10" width="6.205" height="9.517"/>
<rect x="501.849" y="311.235" fill="none" stroke="#8C8C8C" stroke-width="2" stroke-miterlimit="10" width="2.293" height="3.758"/>
<rect x="487.881" y="312.354" fill="#120507" stroke="#8C8C8C" stroke-miterlimit="10" width="13.968" height="0.194"/>
<rect x="487.881" y="313.526" fill="#120507" stroke="#8C8C8C" stroke-miterlimit="10" width="13.968" height="0.193"/>
<rect x="487.881" y="314.7" fill="#120507" stroke="#8C8C8C" stroke-miterlimit="10" width="13.968" height="0.193"/>
<g>
	<rect x="524.434" y="309.123" fill="#120507" stroke="#8C8C8C" stroke-miterlimit="10" width="21.392" height="0.194"/>
	<rect x="524.434" y="320.397" fill="#120507" stroke="#8C8C8C" stroke-miterlimit="10" width="24.943" height="0.193"/>
	<rect x="524.434" y="309.123" fill="#120507" stroke="#8C8C8C" stroke-miterlimit="10" width="0.261" height="11.491"/>
	<rect x="549.246" y="311.729" fill="#120507" stroke="#8C8C8C" stroke-miterlimit="10" width="0.26" height="8.865"/>
	<polygon fill="#120507" stroke="#8C8C8C" stroke-miterlimit="10" points="549.631,311.759 549.453,311.901 545.727,309.317 
		545.905,309.175 	"/>
</g>
<rect x="526.1" y="310.491" fill="#120507" stroke="#8C8C8C" stroke-miterlimit="10" width="19.144" height="0.147"/>
<rect x="526.1" y="319.033" fill="#120507" stroke="#8C8C8C" stroke-miterlimit="10" width="21.531" height="0.146"/>
<rect x="526.1" y="310.491" fill="#120507" stroke="#8C8C8C" stroke-miterlimit="10" width="0.225" height="8.704"/>
<rect x="547.518" y="312.423" fill="#120507" stroke="#8C8C8C" stroke-miterlimit="10" width="0.226" height="6.755"/>
<polygon fill="#120507" stroke="#8C8C8C" stroke-miterlimit="10" points="547.733,312.432 547.563,312.524 545.076,310.589 
	545.248,310.496 "/>
<rect x="543.467" y="280.396" fill="#120507" stroke="#8C8C8C" stroke-miterlimit="10" width="0.263" height="30.937"/>
<rect x="542.715" y="291.77" fill="none" stroke="#8C8C8C" stroke-miterlimit="10" width="4.388" height="0.201"/>
<rect x="542.702" y="285.404" fill="none" stroke="#8C8C8C" stroke-miterlimit="10" width="4.389" height="0.203"/>
<rect x="545.108" y="273.948" fill="none" stroke="#8C8C8C" stroke-miterlimit="10" width="4.09" height="0.204"/>
<rect x="545.108" y="268.119" fill="none" stroke="#8C8C8C" stroke-miterlimit="10" width="4.09" height="0.203"/>
<rect x="544.666" y="274.098" fill="#120507" stroke="#8C8C8C" stroke-miterlimit="10" width="0.097" height="6.338"/>
<rect x="545.093" y="274.111" fill="#120507" stroke="#8C8C8C" stroke-miterlimit="10" width="0.098" height="6.621"/>
<rect x="545.604" y="274.111" fill="#120507" stroke="#8C8C8C" stroke-miterlimit="10" width="0.098" height="6.939"/>
<rect x="543.681" y="280.98" fill="#120507" stroke="#8C8C8C" stroke-miterlimit="10" width="2.021" height="0.07"/>
<rect x="543.503" y="280.684" fill="#120507" stroke="#8C8C8C" stroke-miterlimit="10" width="1.688" height="0.071"/>
<rect x="543.467" y="280.359" fill="#120507" stroke="#8C8C8C" stroke-miterlimit="10" width="1.298" height="0.074"/>
<rect x="544.673" y="274.098" fill="#120507" stroke="#8C8C8C" stroke-miterlimit="10" width="0.459" height="0.072"/>
<rect x="544.666" y="254.609" fill="#120507" stroke="#8C8C8C" stroke-miterlimit="10" width="0.097" height="13.613"/>
<rect x="545.093" y="254.389" fill="#120507" stroke="#8C8C8C" stroke-miterlimit="10" width="0.098" height="13.694"/>
<rect x="545.604" y="254.323" fill="#120507" stroke="#8C8C8C" stroke-miterlimit="10" width="0.098" height="13.758"/>
<rect x="544.715" y="268.148" fill="#120507" stroke="#8C8C8C" stroke-miterlimit="10" width="0.379" height="0.072"/>
<polygon fill="none" stroke="#8C8C8C" stroke-miterlimit="10" points="553.515,221.561 547.121,220.544 545.93,220.354 
	545.985,220.157 553.57,221.363 "/>
<polygon fill="none" stroke="#8C8C8C" stroke-miterlimit="10" points="556.164,210.439 548.58,209.234 548.637,209.036 
	556.223,210.24 "/>
<rect x="549.032" y="209.216" transform="matrix(-1 0.0078 -0.0078 -1 1107.4359 414.3111)" fill="none" stroke="#8C8C8C" stroke-miterlimit="10" width="7.754" height="0.203"/>
<rect x="549.352" y="197.631" transform="matrix(-1 -0.0089 0.0089 -1 1104.683 400.3683)" fill="none" stroke="#8C8C8C" stroke-miterlimit="10" width="7.756" height="0.203"/>
<polygon fill="none" stroke="#8C8C8C" stroke-miterlimit="10" points="556.994,196.529 549.375,197.601 549.323,197.402 
	556.945,196.331 "/>
<polygon fill="none" stroke="#8C8C8C" stroke-miterlimit="10" points="554.018,185.343 546.397,186.415 546.347,186.215 
	553.967,185.145 "/>
<rect x="545.61" y="125.316" fill="#120507" stroke="#8C8C8C" stroke-miterlimit="10" width="0.096" height="27.062"/>
<rect x="545.087" y="125.702" fill="#120507" stroke="#8C8C8C" stroke-miterlimit="10" width="0.097" height="26.505"/>
<rect x="544.673" y="125.998" fill="#120507" stroke="#8C8C8C" stroke-miterlimit="10" width="0.096" height="26.066"/>
<rect x="542.707" y="125.998" fill="#120507" stroke="#8C8C8C" stroke-miterlimit="10" width="2.013" height="0.073"/>
<rect x="543.646" y="125.316" fill="#120507" stroke="#8C8C8C" stroke-miterlimit="10" width="2.062" height="0.072"/>
<rect x="543.17" y="125.702" fill="#120507" stroke="#8C8C8C" stroke-miterlimit="10" width="2.014" height="0.071"/>
<rect x="543.646" y="121.603" fill="#120507" stroke="#8C8C8C" stroke-miterlimit="10" width="0.097" height="3.734"/>
<rect x="543.122" y="121.603" fill="#120507" stroke="#8C8C8C" stroke-miterlimit="10" width="0.097" height="4.17"/>
<rect x="542.707" y="121.462" fill="#120507" stroke="#8C8C8C" stroke-miterlimit="10" width="0.096" height="4.609"/>
<rect x="542.724" y="121.462" fill="none" stroke="#8C8C8C" stroke-miterlimit="10" width="4.399" height="0.203"/>
<rect x="542.69" y="115.112" fill="none" stroke="#8C8C8C" stroke-miterlimit="10" width="4.396" height="0.203"/>
<rect x="542.69" y="105.448" fill="none" stroke="#8C8C8C" stroke-miterlimit="10" width="0.897" height="9.664"/>
<rect x="542.69" y="105.448" fill="none" stroke="#8C8C8C" stroke-miterlimit="10" width="4.517" height="0.204"/>
<rect x="542.538" y="99.087" fill="none" stroke="#8C8C8C" stroke-miterlimit="10" width="4.687" height="0.202"/>
<rect x="543.549" y="95.771" fill="#120507" stroke="#8C8C8C" stroke-miterlimit="10" width="0.138" height="9.88"/>
<rect x="462.636" y="311.235" fill="none" stroke="#8C8C8C" stroke-miterlimit="10" width="0.272" height="3.075"/>
<rect x="506.04" y="316.531" fill="#120507" stroke="#8C8C8C" stroke-miterlimit="10" width="18.655" height="0.191"/>
<rect x="454.875" y="311.235" fill="none" stroke="#8C8C8C" stroke-miterlimit="10" width="0.273" height="3.075"/>
<rect x="421.976" y="311.235" fill="none" stroke="#8C8C8C" stroke-miterlimit="10" width="0.273" height="2.607"/>
<rect x="415.552" y="311.235" fill="none" stroke="#8C8C8C" stroke-miterlimit="10" width="0.274" height="2.607"/>
<rect x="425.438" y="311.235" fill="none" stroke="#8C8C8C" stroke-miterlimit="10" width="0.137" height="2.686"/>
<rect x="412.438" y="311.235" fill="none" stroke="#8C8C8C" stroke-miterlimit="10" width="0.138" height="2.607"/>
<rect x="304.512" y="311.238" fill="none" stroke="#8C8C8C" stroke-miterlimit="10" width="0.271" height="3.054"/>
<rect x="296.695" y="311.287" fill="none" stroke="#8C8C8C" stroke-miterlimit="10" width="0.271" height="3.055"/>
<rect x="277.61" y="310.16" fill="none" stroke="#8C8C8C" stroke-miterlimit="10" width="0.271" height="4.032"/>
<rect x="267.187" y="310.16" fill="none" stroke="#8C8C8C" stroke-miterlimit="10" width="0.273" height="3.97"/>
<rect x="277.881" y="310.16" fill="none" stroke="#8C8C8C" stroke-miterlimit="10" width="10.375" height="0.335"/>
<rect x="277.881" y="310.494" fill="none" stroke="#8C8C8C" stroke-miterlimit="10" width="10.375" height="0.336"/>
<rect x="277.881" y="310.83" fill="none" stroke="#8C8C8C" stroke-miterlimit="10" width="10.375" height="0.334"/>
<g>
	<rect x="256.948" y="310.16" fill="none" stroke="#8C8C8C" stroke-miterlimit="10" width="10.24" height="0.335"/>
	<rect x="256.948" y="310.494" fill="none" stroke="#8C8C8C" stroke-miterlimit="10" width="10.24" height="0.336"/>
	<rect x="256.948" y="310.83" fill="none" stroke="#8C8C8C" stroke-miterlimit="10" width="10.24" height="0.334"/>
</g>
<g>
	<rect x="250.282" y="310.16" fill="none" stroke="#8C8C8C" stroke-miterlimit="10" width="2.283" height="0.335"/>
	<rect x="250.282" y="310.494" fill="none" stroke="#8C8C8C" stroke-miterlimit="10" width="2.283" height="0.336"/>
	<rect x="250.282" y="310.83" fill="none" stroke="#8C8C8C" stroke-miterlimit="10" width="2.283" height="0.334"/>
</g>
<rect x="250.147" y="311.235" fill="none" stroke="#8C8C8C" stroke-miterlimit="10" width="0.271" height="2.934"/>
<rect x="242.311" y="311.235" fill="none" stroke="#8C8C8C" stroke-miterlimit="10" width="0.273" height="2.934"/>
<g>
	<rect x="219.054" y="310.16" fill="none" stroke="#8C8C8C" stroke-miterlimit="10" width="11.892" height="0.335"/>
	<rect x="219.054" y="310.494" fill="none" stroke="#8C8C8C" stroke-miterlimit="10" width="11.892" height="0.336"/>
	<rect x="219.054" y="310.83" fill="none" stroke="#8C8C8C" stroke-miterlimit="10" width="11.892" height="0.334"/>
</g>
<polygon fill="#120507" stroke="#8C8C8C" stroke-miterlimit="10" points="222.305,316.923 222.155,317.083 212.442,312.076 
	212.59,311.916 "/>
<rect x="212.616" y="311.139" fill="#120507" stroke="#8C8C8C" stroke-miterlimit="10" width="0.261" height="1.039"/>
<rect x="189.793" y="248.9" fill="none" stroke="#8C8C8C" stroke-width="2" stroke-miterlimit="10" width="23.515" height="62.373"/>
<rect x="188.294" y="247.943" fill="none" stroke="#8C8C8C" stroke-width="2" stroke-miterlimit="10" width="25.014" height="63.39"/>
<rect x="189.637" y="97.157" fill="none" stroke="#8C8C8C" stroke-width="2" stroke-miterlimit="10" width="23.513" height="75.625"/>
<rect x="188.294" y="173.644" fill="#120507" stroke="#8C8C8C" stroke-miterlimit="10" width="25.158" height="0.195"/>
<rect x="505.058" y="95.598" fill="none" stroke="#8C8C8C" stroke-miterlimit="10" width="30.083" height="0.203"/>
<rect x="505.058" y="94.702" fill="none" stroke="#8C8C8C" stroke-miterlimit="10" width="24.846" height="0.397"/>
<rect x="505.058" y="90.027" fill="none" stroke="#8C8C8C" stroke-miterlimit="10" width="30.083" height="0.298"/>
<rect x="505.058" y="91.233" fill="none" stroke="#8C8C8C" stroke-miterlimit="10" width="22.557" height="0.396"/>
<rect x="505.058" y="90.836" fill="none" stroke="#8C8C8C" stroke-miterlimit="10" width="24.846" height="0.396"/>
<rect x="504.347" y="92.719" fill="none" stroke="#8C8C8C" stroke-miterlimit="10" width="24.846" height="0.397"/>
<rect x="505.058" y="89.202" fill="none" stroke="#8C8C8C" stroke-miterlimit="10" width="24.846" height="0.394"/>
<rect x="505.058" y="88.804" fill="none" stroke="#8C8C8C" stroke-miterlimit="10" width="22.557" height="0.397"/>
<rect x="505.058" y="85.762" fill="none" stroke="#8C8C8C" stroke-miterlimit="10" width="22.557" height="0.397"/>
<rect x="505.058" y="85.368" fill="none" stroke="#8C8C8C" stroke-miterlimit="10" width="25.11" height="0.394"/>
<rect x="505.058" y="86.161" fill="none" stroke="#8C8C8C" stroke-miterlimit="10" width="15.627" height="2.644"/>
<rect x="505.058" y="91.629" fill="none" stroke="#8C8C8C" stroke-miterlimit="10" width="15.627" height="2.71"/>
<rect x="505.058" y="94.339" fill="none" stroke="#8C8C8C" stroke-miterlimit="10" width="22.557" height="0.396"/>
<g>
	<rect x="505.511" y="91.62" fill="#120507" stroke="#8C8C8C" stroke-miterlimit="10" width="0.098" height="2.76"/>
	<rect x="506.87" y="91.62" fill="#120507" stroke="#8C8C8C" stroke-miterlimit="10" width="0.096" height="2.76"/>
	<rect x="508.231" y="91.62" fill="#120507" stroke="#8C8C8C" stroke-miterlimit="10" width="0.096" height="2.76"/>
	<rect x="509.592" y="91.62" fill="#120507" stroke="#8C8C8C" stroke-miterlimit="10" width="0.097" height="2.76"/>
	<rect x="510.951" y="91.62" fill="#120507" stroke="#8C8C8C" stroke-miterlimit="10" width="0.096" height="2.76"/>
	<rect x="512.312" y="91.62" fill="#120507" stroke="#8C8C8C" stroke-miterlimit="10" width="0.097" height="2.76"/>
	<rect x="513.671" y="91.62" fill="#120507" stroke="#8C8C8C" stroke-miterlimit="10" width="0.096" height="2.76"/>
	<rect x="515.032" y="91.62" fill="#120507" stroke="#8C8C8C" stroke-miterlimit="10" width="0.096" height="2.76"/>
	<rect x="516.393" y="91.62" fill="#120507" stroke="#8C8C8C" stroke-miterlimit="10" width="0.097" height="2.76"/>
	<rect x="517.752" y="91.62" fill="#120507" stroke="#8C8C8C" stroke-miterlimit="10" width="0.096" height="2.76"/>
	<rect x="519.11" y="91.62" fill="#120507" stroke="#8C8C8C" stroke-miterlimit="10" width="0.097" height="2.76"/>
</g>
<g>
	<rect x="505.461" y="86.161" fill="#120507" stroke="#8C8C8C" stroke-miterlimit="10" width="0.098" height="2.644"/>
	<rect x="506.821" y="86.161" fill="#120507" stroke="#8C8C8C" stroke-miterlimit="10" width="0.096" height="2.644"/>
	<rect x="508.183" y="86.161" fill="#120507" stroke="#8C8C8C" stroke-miterlimit="10" width="0.097" height="2.644"/>
	<rect x="509.542" y="86.161" fill="#120507" stroke="#8C8C8C" stroke-miterlimit="10" width="0.098" height="2.644"/>
	<rect x="510.902" y="86.161" fill="#120507" stroke="#8C8C8C" stroke-miterlimit="10" width="0.096" height="2.644"/>
	<rect x="512.264" y="86.161" fill="#120507" stroke="#8C8C8C" stroke-miterlimit="10" width="0.097" height="2.644"/>
	<rect x="513.623" y="86.161" fill="#120507" stroke="#8C8C8C" stroke-miterlimit="10" width="0.098" height="2.644"/>
	<rect x="514.982" y="86.161" fill="#120507" stroke="#8C8C8C" stroke-miterlimit="10" width="0.097" height="2.644"/>
	<rect x="516.343" y="86.161" fill="#120507" stroke="#8C8C8C" stroke-miterlimit="10" width="0.098" height="2.644"/>
	<rect x="517.704" y="86.161" fill="#120507" stroke="#8C8C8C" stroke-miterlimit="10" width="0.096" height="2.644"/>
	<rect x="519.063" y="86.161" fill="#120507" stroke="#8C8C8C" stroke-miterlimit="10" width="0.097" height="2.644"/>
</g>
<polygon fill="#120507" stroke="#8C8C8C" stroke-miterlimit="10" points="545.76,152.202 545.827,152.253 533.229,161.336 
	533.162,161.285 "/>
<polygon fill="#120507" stroke="#8C8C8C" stroke-miterlimit="10" points="545.246,152.03 545.313,152.081 532.456,161.35 
	532.39,161.298 "/>
<polygon fill="#120507" stroke="#8C8C8C" stroke-miterlimit="10" points="544.601,152.034 544.667,152.088 531.549,161.253 
	531.479,161.199 "/>
<polygon fill="#120507" stroke="#8C8C8C" stroke-miterlimit="10" points="544.59,254.578 544.522,254.631 531.515,245.443 
	531.583,245.391 "/>
<polygon fill="#120507" stroke="#8C8C8C" stroke-miterlimit="10" points="545.007,254.352 544.938,254.404 532.137,245.363 
	532.205,245.313 "/>
<polygon fill="#120507" stroke="#8C8C8C" stroke-miterlimit="10" points="545.787,254.23 545.721,254.283 533.068,245.16 
	533.136,245.107 "/>
<polygon fill="#120507" stroke="#8C8C8C" stroke-miterlimit="10" points="506.093,316.608 505.894,316.733 503.943,315.02 
	504.142,314.895 "/>
<rect x="219.973" y="311.139" fill="#120507" stroke="#8C8C8C" stroke-miterlimit="10" width="0.261" height="4.811"/>
<path fill="none" stroke="#8C8C8C" stroke-miterlimit="10" d="M532.915,245.294c0,0,10.73-11.926,14.205-24.75"/>
<path fill="none" stroke="#8C8C8C" stroke-miterlimit="10" d="M532.405,245.294c0,0,10.731-11.926,14.207-24.75"/>
<path fill="none" stroke="#8C8C8C" stroke-miterlimit="10" d="M531.941,245.191c0,0,10.73-11.928,14.204-24.75"/>
<path fill="none" stroke="#8C8C8C" stroke-miterlimit="10" d="M546.177,186.266c0,0-2.256-10.956-14.306-24.959"/>
<path fill="none" stroke="#8C8C8C" stroke-miterlimit="10" d="M546.607,186.33c0,0-2.256-10.955-14.308-24.958"/>
<path fill="none" stroke="#8C8C8C" stroke-miterlimit="10" d="M547.07,186.096c0,0-1.94-10.754-13.993-24.758"/>
<path fill="none" stroke="#8C8C8C" stroke-miterlimit="10" d="M242.582,314.17c0,0,3.169-0.101,3.802-2.835"/>
<path fill="none" stroke="#8C8C8C" stroke-miterlimit="10" d="M250.187,314.17c0,0-3.169-0.101-3.802-2.835"/>
<path fill="none" stroke="#8C8C8C" stroke-miterlimit="10" d="M267.459,314.073c0,0,4.384,0.242,5.129-3.798"/>
<path fill="none" stroke="#8C8C8C" stroke-miterlimit="10" d="M277.61,314.038c0,0-4.275,0.314-5.019-3.727"/>
<path fill="none" stroke="#8C8C8C" stroke-miterlimit="10" d="M296.967,314.292c0,0,3.169-0.103,3.802-2.836"/>
<path fill="none" stroke="#8C8C8C" stroke-miterlimit="10" d="M304.573,314.292c0,0-3.17-0.103-3.804-2.836"/>
<path fill="none" stroke="#8C8C8C" stroke-miterlimit="10" d="M415.823,313.76c0,0,2.633,0.084,3.094-2.427"/>
<path fill="none" stroke="#8C8C8C" stroke-miterlimit="10" d="M422.111,313.76c0,0-2.631,0.084-3.094-2.427"/>
<path fill="none" stroke="#8C8C8C" stroke-miterlimit="10" d="M425.419,313.865c0,0-2.698,0.084-3.171-2.428"/>
<path fill="none" stroke="#8C8C8C" stroke-miterlimit="10" d="M412.507,313.845c0,0,2.589,0.084,3.042-2.427"/>
<path fill="none" stroke="#8C8C8C" stroke-miterlimit="10" d="M455.146,314.311c0,0,3.46-0.098,3.769-3.074"/>
<path fill="none" stroke="#8C8C8C" stroke-miterlimit="10" d="M462.636,314.311c0,0-3.459-0.098-3.767-3.074"/>
<path fill="none" stroke="#8C8C8C" stroke-miterlimit="10" d="M547.104,291.7c0,0-0.382-2.882-4.39-3.024"/>
<path fill="none" stroke="#8C8C8C" stroke-miterlimit="10" d="M547.104,285.65c0,0-0.382,2.883-4.39,3.024"/>
<path fill="none" stroke="#8C8C8C" stroke-miterlimit="10" d="M549.198,274.152c0,0-0.38-2.885-4.389-3.026"/>
<path fill="none" stroke="#8C8C8C" stroke-miterlimit="10" d="M549.198,268.102c0,0-0.38,2.883-4.389,3.023"/>
<path fill="none" stroke="#8C8C8C" stroke-miterlimit="10" d="M553.57,221.363c0,0,1.003-5.199-6.035-6.62"/>
<path fill="none" stroke="#8C8C8C" stroke-miterlimit="10" d="M556.474,210.471c0,0-1.198,4.814-8.859,4.271"/>
<path fill="none" stroke="#8C8C8C" stroke-miterlimit="10" d="M556.824,197.92c0,0-0.251,5.105-7.745,5.43"/>
<path fill="none" stroke="#8C8C8C" stroke-miterlimit="10" d="M556.678,208.959c0,0-0.104-5.287-7.599-5.609"/>
<path fill="none" stroke="#8C8C8C" stroke-miterlimit="10" d="M553.848,185.428c0,0,0.775,5.316-6.237,6.528"/>
<path fill="none" stroke="#8C8C8C" stroke-miterlimit="10" d="M556.756,196.351c0,0-1.438-5.008-9.146-4.396"/>
<path fill="none" stroke="#8C8C8C" stroke-miterlimit="10" d="M547.084,115.387c0,0-0.379,2.884-4.388,3.024"/>
<path fill="none" stroke="#8C8C8C" stroke-miterlimit="10" d="M547.118,121.436c0,0-0.38-2.882-4.389-3.025"/>
<path fill="none" stroke="#8C8C8C" stroke-miterlimit="10" d="M547.222,99.289c0,0-0.396,2.981-4.405,3.124"/>
<path fill="none" stroke="#8C8C8C" stroke-miterlimit="10" d="M547.239,105.438c0,0-0.381-2.881-4.39-3.025"/>
<path fill="none" stroke="#8C8C8C" stroke-width="2" stroke-miterlimit="10" d="M545.652,285.404c0,0,55.046-77.354,1.471-163.74"/>
<ellipse fill="none" stroke="#8C8C8C" stroke-width="2" stroke-miterlimit="10" cx="551.781" cy="276.813" rx="3.714" ry="2.763"/>
<ellipse fill="none" stroke="#8C8C8C" stroke-width="2" stroke-miterlimit="10" cx="551.781" cy="276.814" rx="2.98" ry="2.219"/>
<g>
	<ellipse fill="none" stroke="#8C8C8C" stroke-width="2" stroke-miterlimit="10" cx="560.914" cy="256.288" rx="3.714" ry="2.764"/>
	<ellipse fill="none" stroke="#8C8C8C" stroke-width="2" stroke-miterlimit="10" cx="560.914" cy="256.288" rx="2.981" ry="2.219"/>
</g>
<g>
	<ellipse fill="none" stroke="#8C8C8C" stroke-width="2" stroke-miterlimit="10" cx="567.301" cy="235.22" rx="3.716" ry="2.765"/>
	<ellipse fill="none" stroke="#8C8C8C" stroke-width="2" stroke-miterlimit="10" cx="567.301" cy="235.219" rx="2.981" ry="2.219"/>
</g>
<g>
	<ellipse fill="none" stroke="#8C8C8C" stroke-width="2" stroke-miterlimit="10" cx="570.282" cy="213.952" rx="3.714" ry="2.763"/>
	<ellipse fill="none" stroke="#8C8C8C" stroke-width="2" stroke-miterlimit="10" cx="570.282" cy="213.952" rx="2.98" ry="2.218"/>
</g>
<g>
	<ellipse fill="none" stroke="#8C8C8C" stroke-width="2" stroke-miterlimit="10" cx="570.282" cy="192.452" rx="3.714" ry="2.764"/>
	<ellipse fill="none" stroke="#8C8C8C" stroke-width="2" stroke-miterlimit="10" cx="570.282" cy="192.452" rx="2.98" ry="2.219"/>
</g>
<g>
	<ellipse fill="none" stroke="#8C8C8C" stroke-width="2" stroke-miterlimit="10" cx="567.301" cy="170.954" rx="3.715" ry="2.764"/>
	<ellipse fill="none" stroke="#8C8C8C" stroke-width="2" stroke-miterlimit="10" cx="567.301" cy="170.955" rx="2.981" ry="2.218"/>
</g>
<g>
	<ellipse fill="none" stroke="#8C8C8C" stroke-width="2" stroke-miterlimit="10" cx="560.878" cy="150.065" rx="3.714" ry="2.764"/>
	<ellipse fill="none" stroke="#8C8C8C" stroke-width="2" stroke-miterlimit="10" cx="560.878" cy="150.064" rx="2.981" ry="2.219"/>
</g>
<g>
	<ellipse fill="none" stroke="#8C8C8C" stroke-width="2" stroke-miterlimit="10" cx="551.829" cy="129.658" rx="3.714" ry="2.763"/>
	<ellipse fill="none" stroke="#8C8C8C" stroke-width="2" stroke-miterlimit="10" cx="551.829" cy="129.657" rx="2.98" ry="2.218"/>
</g>
<ellipse fill="none" stroke="#8C8C8C" stroke-width="8" stroke-miterlimit="10" cx="554.083" cy="296.605" rx="6.502" ry="4.837"/>
<ellipse fill="none" stroke="#8C8C8C" stroke-width="8" stroke-miterlimit="10" cx="553.891" cy="109.648" rx="6.501" ry="4.838"/>
<polygon fill="none" stroke="#8C8C8C" stroke-width="2" stroke-miterlimit="10" points="600.466,296.953 570.029,287.162 
	580.051,269.912 610.485,279.703 "/>
<polygon fill="none" stroke="#8C8C8C" stroke-width="2" stroke-miterlimit="10" points="597.141,292.363 576.793,285.818 
	582.992,275.145 603.341,281.688 "/>
<polygon fill="none" stroke="#8C8C8C" stroke-width="2" stroke-miterlimit="10" points="564.523,311.203 566.031,305.087 
	574.334,304.275 577.957,309.893 571.896,314.174 "/>
<rect x="573.893" y="281.309" fill="none" stroke="#8C8C8C" stroke-width="2" stroke-miterlimit="10" width="6.196" height="2.726"/>
<rect x="583.986" y="281.176" fill="none" stroke="#8C8C8C" stroke-width="2" stroke-miterlimit="10" width="15.712" height="2.727"/>
<rect x="562.168" y="308.178" fill="none" stroke="#8C8C8C" stroke-width="2" stroke-miterlimit="10" width="6.195" height="2.728"/>
<rect x="534.203" y="315.801" fill="none" stroke="#8C8C8C" stroke-width="2" stroke-miterlimit="10" width="13.313" height="3.274"/>
<path fill="none" stroke="#8C8C8C" stroke-width="2" stroke-miterlimit="10" d="M549.526,313.956
	c19.948,1.845,34.025-10.886,25.891-24.927"/>
<path fill="none" stroke="#8C8C8C" stroke-width="2" stroke-miterlimit="10" d="M549.526,315.115
	c20.437,1.787,34.649-9.824,28.145-25.358"/>
<path fill="none" stroke="#8C8C8C" stroke-width="2" stroke-miterlimit="10" d="M549.526,316.37
	c20.437,1.788,36.485-10.489,29.979-26.022"/>
<path fill="none" stroke="#8C8C8C" stroke-width="2" stroke-miterlimit="10" d="M549.378,317.439
	c20.675,1.959,37.684-10.236,31.979-26.557"/>
<polygon fill="none" stroke="#8C8C8C" stroke-width="2" stroke-miterlimit="10" points="603.34,125 582.634,131.472 
	576.415,120.454 597.119,113.983 "/>
<polygon fill="none" stroke="#8C8C8C" stroke-width="2" stroke-miterlimit="10" points="610.518,127.148 579.793,136.755 
	569.846,119.136 600.572,109.531 "/>
<line fill="none" stroke="#8C8C8C" stroke-width="2" stroke-miterlimit="10" x1="576.316" y1="91.233" x2="561.107" y2="91.233"/>
<line fill="none" stroke="#8C8C8C" stroke-width="2" stroke-miterlimit="10" x1="577.965" y1="90.176" x2="559.687" y2="90.176"/>
<line fill="none" stroke="#8C8C8C" stroke-width="2" stroke-miterlimit="10" x1="574.853" y1="92.473" x2="562.78" y2="92.473"/>
<line fill="none" stroke="#8C8C8C" stroke-width="2" stroke-miterlimit="10" x1="559.75" y1="97.172" x2="559.75" y2="90.075"/>
<line fill="none" stroke="#8C8C8C" stroke-width="2" stroke-miterlimit="10" x1="561.171" y1="97.172" x2="561.171" y2="91.142"/>
<line fill="none" stroke="#8C8C8C" stroke-width="2" stroke-miterlimit="10" x1="562.837" y1="97.172" x2="562.837" y2="92.375"/>
<line fill="none" stroke="#8C8C8C" stroke-width="2" stroke-miterlimit="10" x1="559.75" y1="96.042" x2="543.616" y2="96.042"/>
<line fill="none" stroke="#8C8C8C" stroke-width="2" stroke-miterlimit="10" x1="562.884" y1="97.133" x2="543.616" y2="97.133"/>
<path fill="none" stroke="#8C8C8C" stroke-width="2" stroke-miterlimit="10" d="M574.737,92.473v6.33c0,0,7.982,7.428,2.742,17.839"
	/>
<line fill="none" stroke="#8C8C8C" stroke-width="2" stroke-miterlimit="10" x1="576.191" y1="98.5" x2="576.191" y2="91.233"/>
<line fill="none" stroke="#8C8C8C" stroke-width="2" stroke-miterlimit="10" x1="577.827" y1="98.31" x2="577.827" y2="90.131"/>
<path fill="none" stroke="#8C8C8C" stroke-width="2" stroke-miterlimit="10" d="M576.191,92.123v6.33c0,0,7.851,6.985,3.07,17.713"
	/>
<path fill="none" stroke="#8C8C8C" stroke-width="2" stroke-miterlimit="10" d="M577.827,91.93v6.329c0,0,6.749,6.08,3.66,17.026"/>
<path fill="none" stroke="#8C8C8C" stroke-width="2" stroke-miterlimit="10" d="M580.758,270.273c0,0,31.844-67.576,0.206-133.993"
	/>
<path fill="none" stroke="#8C8C8C" stroke-width="2" stroke-miterlimit="10" d="M582.277,270.723c0,0,29.925-61.654,4.239-124.683"
	/>
<path fill="none" stroke="#8C8C8C" stroke-width="2" stroke-miterlimit="10" d="M583.763,271.239c0,0,29.894-62.595,4.211-125.621"
	/>
<path fill="none" stroke="#8C8C8C" stroke-width="2" stroke-miterlimit="10" d="M585.108,271.673c0,0,30.177-63.598,4.492-126.624"
	/>
<line fill="none" stroke="#8C8C8C" stroke-width="2" stroke-miterlimit="10" x1="616.128" y1="136.782" x2="610.312" y2="126.969"/>
<line fill="none" stroke="#8C8C8C" stroke-width="2" stroke-miterlimit="10" x1="615.997" y1="136.718" x2="585.245" y2="146.472"/>
<rect x="209.203" y="247.277" fill="none" stroke="#8C8C8C" stroke-miterlimit="10" width="4.353" height="0.166"/>
<rect x="209.27" y="240.938" fill="none" stroke="#8C8C8C" stroke-miterlimit="10" width="4.286" height="0.162"/>
<path fill="none" stroke="#8C8C8C" stroke-miterlimit="10" d="M209.332,241.1c0,0-0.263,2.67,4.099,3.123"/>
<path fill="none" stroke="#8C8C8C" stroke-miterlimit="10" d="M209.368,247.277c0,0-0.338-2.603,4.023-3.055"/>
<rect x="209.485" y="234.452" fill="none" stroke="#8C8C8C" stroke-miterlimit="10" width="4.885" height="0.184"/>
<rect x="209.563" y="227.368" fill="none" stroke="#8C8C8C" stroke-miterlimit="10" width="4.81" height="0.185"/>
<path fill="none" stroke="#8C8C8C" stroke-miterlimit="10" d="M209.632,227.553c0,0-0.296,2.98,4.599,3.486"/>
<path fill="none" stroke="#8C8C8C" stroke-miterlimit="10" d="M209.671,234.452c0,0-0.38-2.907,4.515-3.412"/>
<rect x="210.001" y="180.07" fill="none" stroke="#8C8C8C" stroke-miterlimit="10" width="4.386" height="0.163"/>
<rect x="210.069" y="173.741" fill="none" stroke="#8C8C8C" stroke-miterlimit="10" width="4.318" height="0.166"/>
<path fill="none" stroke="#8C8C8C" stroke-miterlimit="10" d="M210.131,173.908c0,0-0.267,2.663,4.13,3.115"/>
<path fill="none" stroke="#8C8C8C" stroke-miterlimit="10" d="M210.166,180.07c0,0-0.339-2.596,4.055-3.047"/>
<rect x="212.973" y="234.669" fill="none" stroke="#8C8C8C" stroke-width="2" stroke-miterlimit="10" width="1.397" height="6.269"/>
<rect x="212.973" y="211.959" fill="none" stroke="#8C8C8C" stroke-width="2" stroke-miterlimit="10" width="1.397" height="15.281"/>
<rect x="213.569" y="211.959" fill="none" stroke="#8C8C8C" stroke-miterlimit="10" width="0.35" height="15.281"/>
<rect x="208.661" y="211.71" fill="none" stroke="#8C8C8C" stroke-miterlimit="10" width="5.709" height="0.185"/>
<rect x="208.661" y="202.598" fill="none" stroke="#8C8C8C" stroke-miterlimit="10" width="5.709" height="0.185"/>
<rect x="212.914" y="180.233" fill="none" stroke="#8C8C8C" stroke-width="2" stroke-miterlimit="10" width="1.397" height="22.332"/>
<rect x="213.511" y="180.233" fill="none" stroke="#8C8C8C" stroke-miterlimit="10" width="0.35" height="22.33"/>
<rect x="573.604" y="122.317" fill="none" stroke="#8C8C8C" stroke-width="2" stroke-miterlimit="10" width="6.309" height="2.743"/>
<g>
	<rect x="201.264" y="99.943" fill="none" stroke="#8C8C8C" stroke-miterlimit="10" width="0.261" height="64.051"/>
	<polyline fill="none" stroke="#8C8C8C" stroke-miterlimit="10" points="201.393,98.786 195.465,101.463 196.42,102.702 
		201.393,100.238 206.657,102.404 207.612,101.265 	"/>
</g>
<g>
	<rect x="202.251" y="255.813" fill="none" stroke="#8C8C8C" stroke-miterlimit="10" width="0.263" height="55.521"/>
	<polyline fill="none" stroke="#8C8C8C" stroke-miterlimit="10" points="202.382,254.656 196.453,257.333 197.407,258.57 
		202.382,256.109 207.644,258.273 208.6,257.134 	"/>
</g>
<ellipse fill="none" stroke="#8C8C8C" stroke-width="2" stroke-miterlimit="10" cx="504.097" cy="203.527" rx="26.249" ry="38.709"/>
<ellipse fill="none" stroke="#8C8C8C" stroke-width="2" stroke-miterlimit="10" cx="504.097" cy="203.526" rx="27.753" ry="39.651"/>
<rect x="500.26" y="95.761" fill="none" stroke="#8C8C8C" stroke-miterlimit="10" width="22.558" height="0.394"/>
<rect x="500.26" y="96.475" fill="none" stroke="#8C8C8C" stroke-miterlimit="10" width="39.023" height="2.492"/>
<rect x="499.395" y="95.887" fill="none" stroke="#8C8C8C" stroke-miterlimit="10" width="40.823" height="3.627"/>
<line fill="none" stroke="#8C8C8C" stroke-miterlimit="10" x1="540.218" y1="96.588" x2="542.538" y2="96.588"/>
<line fill="none" stroke="#8C8C8C" stroke-miterlimit="10" x1="542.538" y1="96.543" x2="542.538" y2="99.32"/>
<rect name="西门" x="132.354" y="132.97" fill="none" stroke="#FFFFFF" width="48.227" height="25.297"/>
<rect name="北门" x="431.035" y="41.636" fill="none" stroke="#FFFFFF" width="48.227" height="25.297"/>
<rect name="东门" x="607.268" y="240.876" fill="none" stroke="#FFFFFF" width="48.228" height="25.297"/>
<rect name="南门" x="427.569" y="328.87" fill="none" stroke="#FFFFFF" width="48.227" height="25.297"/>
</svg>
