<?xml version="1.0" encoding="utf-8"?>
<!-- Generator: Adobe Illustrator 17.0.0, SVG Export Plug-In . SVG Version: 6.00 Build 0)  -->
<!DOCTYPE svg PUBLIC "-//W3C//DTD SVG 1.1//EN" "http://www.w3.org/Graphics/SVG/1.1/DTD/svg11.dtd">
<svg version="1.1" id="图层_1" xmlns="http://www.w3.org/2000/svg" xmlns:xlink="http://www.w3.org/1999/xlink" x="0px" y="0px"
	 width="5102.36px" height="3883.46px" viewBox="0 0 5102.36 3883.46" enable-background="new 0 0 5102.36 3883.46"
	 xml:space="preserve">
<g>
	<rect x="469.048" y="55.923" fill="#120507" width="3.005" height="256.276"/>
	<rect x="727.818" y="56.307" fill="#120507" width="3.005" height="58.826"/>
	<rect x="469.04" y="54.821" fill="#120507" width="1249.736" height="3.005"/>
	<rect x="469.08" y="70.054" fill="#120507" width="261.775" height="3.005"/>
	<rect x="469.041" y="84.217" fill="#120507" width="261.775" height="3.005"/>
	<rect x="469.041" y="101.098" fill="#120507" width="261.775" height="3.005"/>
	<rect x="773.088" y="56.307" fill="#120507" width="3.005" height="58.826"/>
	<rect x="776.139" y="70.23" fill="#120507" width="306.015" height="3.005"/>
	<rect x="776.093" y="84.393" fill="#120507" width="306.015" height="3.005"/>
	<rect x="776.093" y="101.274" fill="#120507" width="306.015" height="3.005"/>
	<rect x="1082.108" y="56.451" fill="#120507" width="3.005" height="58.826"/>
	<rect x="1127.378" y="56.451" fill="#120507" width="3.005" height="58.826"/>
	<rect x="1128.937" y="70.374" fill="#120507" width="373.892" height="3.005"/>
	<rect x="1128.88" y="84.537" fill="#120507" width="373.892" height="3.005"/>
	<rect x="1128.88" y="101.418" fill="#120507" width="373.892" height="3.005"/>
	<rect x="1501.27" y="56.627" fill="#120507" width="3.005" height="58.826"/>
	<rect x="1546.54" y="56.627" fill="#120507" width="3.005" height="58.826"/>
	<rect x="1670.501" y="56.627" fill="#120507" width="3.005" height="58.826"/>
	<rect x="1715.771" y="56.627" fill="#120507" width="3.005" height="58.826"/>
	<rect x="1548.063" y="70.518" fill="#120507" width="125.501" height="3.005"/>
	<rect x="1548.044" y="84.681" fill="#120507" width="125.501" height="3.005"/>
	<rect x="1548.044" y="101.561" fill="#120507" width="125.501" height="3.005"/>
	<rect x="420.387" y="114.151" fill="#120507" width="1317.955" height="3.005"/>
	<rect x="1735.337" y="113.709" fill="#120507" width="3.005" height="217.289"/>
	<rect x="420.386" y="113.709" fill="#120507" width="3.005" height="238.006"/>
	<rect x="137.834" y="351.715" fill="#120507" width="3.005" height="3314.831"/>
	<rect x="137.834" y="350.212" fill="#120507" width="285.558" height="3.005"/>
	<rect x="47.485" y="1520.652" fill="#120507" width="93.355" height="3.005"/>
	<rect x="47.484" y="2462.983" fill="#120507" width="93.355" height="3.005"/>
	<rect x="47.484" y="1520.652" fill="#120507" width="3.005" height="945.336"/>
	<rect x="2081.321" y="123.445" fill="#120507" width="3.005" height="207.553"/>
	<rect x="2034.517" y="123.445" fill="#120507" width="3.005" height="207.553"/>
	<rect x="1786.361" y="123.445" fill="#120507" width="3.005" height="207.553"/>
	<rect x="1735.339" y="123.445" fill="#120507" width="348.989" height="3.005"/>
	<rect x="1787.969" y="141.157" fill="#120507" width="249.658" height="3.005"/>
	<rect x="1787.969" y="156.427" fill="#120507" width="249.658" height="3.005"/>
	<rect x="1787.969" y="171.698" fill="#120507" width="249.658" height="3.005"/>
	<rect x="1787.969" y="186.968" fill="#120507" width="249.658" height="3.005"/>
	<rect x="1787.969" y="202.238" fill="#120507" width="249.658" height="3.005"/>
	<rect x="1787.969" y="217.508" fill="#120507" width="249.658" height="3.005"/>
	<rect x="1787.969" y="232.779" fill="#120507" width="249.658" height="3.005"/>
	<rect x="1787.969" y="248.049" fill="#120507" width="249.658" height="3.005"/>
	<rect x="1787.969" y="263.319" fill="#120507" width="249.658" height="3.005"/>
	<rect x="1787.969" y="278.589" fill="#120507" width="249.658" height="3.005"/>
	<rect x="1787.969" y="293.86" fill="#120507" width="249.658" height="3.005"/>
	<rect x="1787.969" y="309.13" fill="#120507" width="249.658" height="3.005"/>
	<rect x="469.054" y="196.099" fill="#120507" width="1269.289" height="3.005"/>
	<rect x="1549.204" y="214.504" fill="#120507" width="176.605" height="3.005"/>
	<rect x="1549.204" y="232.081" fill="#120507" width="176.605" height="3.005"/>
	<rect x="1315.885" y="248.048" fill="#120507" width="409.926" height="3.005"/>
	<rect x="1546.199" y="196.099" fill="#120507" width="3.005" height="54.955"/>
	<rect x="1500.929" y="196.099" fill="#120507" width="3.005" height="54.955"/>
	<rect x="1315.826" y="213.616" fill="#120507" width="186.604" height="3.005"/>
	<rect x="1315.826" y="232.081" fill="#120507" width="186.604" height="3.005"/>
	<rect x="1312.82" y="197.602" fill="#120507" width="3.005" height="114.214"/>
	<rect x="1261.987" y="197.602" fill="#120507" width="3.005" height="114.214"/>
	<rect x="1724.309" y="197.602" fill="#120507" width="3.005" height="114.214"/>
	<rect x="772.636" y="216.006" fill="#120507" width="312.153" height="3.005"/>
	<rect x="772.636" y="233.583" fill="#120507" width="312.153" height="3.005"/>
	<rect x="523.523" y="249.55" fill="#120507" width="741.471" height="3.005"/>
	<rect x="772.634" y="197.602" fill="#120507" width="3.005" height="54.955"/>
	<rect x="727.364" y="197.602" fill="#120507" width="3.005" height="54.955"/>
	<rect x="523.462" y="215.119" fill="#120507" width="206.612" height="3.005"/>
	<rect x="523.462" y="233.584" fill="#120507" width="206.612" height="3.005"/>
	<rect x="520.457" y="199.104" fill="#120507" width="3.005" height="114.214"/>
	<rect x="1127.378" y="196.067" fill="#120507" width="3.005" height="54.955"/>
	<rect x="1082.108" y="196.067" fill="#120507" width="3.005" height="54.955"/>
	<rect x="1127.998" y="216.006" fill="#120507" width="137.025" height="3.005"/>
	<rect x="1127.998" y="233.584" fill="#120507" width="137.025" height="3.005"/>
	<rect x="423.391" y="310.728" fill="#120507" width="1314.951" height="3.005"/>
	<rect x="2090.405" y="83.321" fill="#120507" width="156.14" height="3.005"/>
	<rect x="2088.904" y="83.192" fill="#120507" width="3.005" height="247.806"/>
	<rect x="2090.405" y="99.724" fill="#120507" width="156.14" height="3.005"/>
	<rect x="2090.405" y="120.44" fill="#120507" width="156.14" height="3.005"/>
	<rect x="2160.74" y="237.811" fill="#120507" width="84.78" height="3.005"/>
	<rect x="2160.74" y="254.214" fill="#120507" width="84.78" height="3.005"/>
	<rect x="2160.74" y="274.931" fill="#120507" width="84.78" height="3.005"/>
	
		<rect x="2245.522" y="64.875" fill="none" stroke="#221714" stroke-width="2" stroke-miterlimit="10" width="52.943" height="78.008"/>
	
		<rect x="2518.678" y="64.875" fill="none" stroke="#221714" stroke-width="2" stroke-miterlimit="10" width="52.943" height="78.008"/>
	
		<rect x="2928.412" y="64.875" fill="none" stroke="#221714" stroke-width="2" stroke-miterlimit="10" width="52.943" height="78.008"/>
	
		<rect x="3364.234" y="64.875" fill="none" stroke="#221714" stroke-width="2" stroke-miterlimit="10" width="52.943" height="78.008"/>
	<rect x="2298.466" y="83.816" fill="#120507" width="220.213" height="3.005"/>
	<rect x="2298.466" y="100.22" fill="#120507" width="220.213" height="3.005"/>
	<rect x="2298.466" y="120.936" fill="#120507" width="220.213" height="3.005"/>
	<rect x="2571.112" y="83.816" fill="#120507" width="358.325" height="3.005"/>
	<rect x="2571.112" y="100.219" fill="#120507" width="358.325" height="3.005"/>
	<rect x="2571.112" y="120.936" fill="#120507" width="358.325" height="3.005"/>
	<rect x="2981.355" y="83.162" fill="#120507" width="383.006" height="3.005"/>
	<rect x="2981.355" y="99.565" fill="#120507" width="383.006" height="3.005"/>
	<rect x="2981.355" y="120.282" fill="#120507" width="383.006" height="3.005"/>
	<rect x="3415.898" y="83.163" fill="#120507" width="288.758" height="3.005"/>
	<rect x="3415.898" y="99.566" fill="#120507" width="288.758" height="3.005"/>
	<rect x="3415.898" y="120.283" fill="#120507" width="288.758" height="3.005"/>
	
		<rect x="2245.522" y="227.221" fill="none" stroke="#221714" stroke-width="2" stroke-miterlimit="10" width="52.943" height="78.008"/>
	
		<rect x="2518.678" y="227.221" fill="none" stroke="#221714" stroke-width="2" stroke-miterlimit="10" width="52.943" height="78.008"/>
	
		<rect x="2928.412" y="227.221" fill="none" stroke="#221714" stroke-width="2" stroke-miterlimit="10" width="52.943" height="78.008"/>
	<rect x="2298.469" y="237.156" fill="#120507" width="220.213" height="3.005"/>
	<rect x="2298.469" y="253.559" fill="#120507" width="220.213" height="3.005"/>
	<rect x="2298.469" y="274.275" fill="#120507" width="220.213" height="3.005"/>
	<rect x="2571.113" y="238.658" fill="#120507" width="358.325" height="3.005"/>
	<rect x="2571.113" y="255.061" fill="#120507" width="358.325" height="3.005"/>
	<rect x="2571.113" y="275.777" fill="#120507" width="358.325" height="3.005"/>
	<rect x="2981.356" y="238.004" fill="#120507" width="385.948" height="3.005"/>
	<rect x="2981.356" y="254.407" fill="#120507" width="385.948" height="3.005"/>
	<rect x="2981.356" y="275.123" fill="#120507" width="385.948" height="3.005"/>
	
		<rect x="3367.304" y="149.149" fill="none" stroke="#221714" stroke-width="2" stroke-miterlimit="10" width="152.307" height="230.955"/>
	
		<rect x="3392.24" y="174.854" fill="none" stroke="#221714" stroke-width="2" stroke-miterlimit="10" width="103.201" height="179.93"/>
	
		<rect x="3703.186" y="83.163" fill="none" stroke="#221714" stroke-width="2" stroke-miterlimit="10" width="76.921" height="236.709"/>
	<rect x="2088.906" y="329.721" fill="#120507" width="2143.65" height="3.005"/>
	<rect x="1735.338" y="330.614" fill="#120507" width="302.184" height="3.005"/>
	
		<rect x="3780.107" y="161.938" fill="none" stroke="#221714" stroke-width="2" stroke-miterlimit="10" width="355.001" height="171.224"/>
	<rect x="139.332" y="3663.54" fill="#120507" width="4092.966" height="3.005"/>
	<rect x="505.687" y="3719.425" fill="#120507" width="124.877" height="3.005"/>
	<rect x="640.73" y="3719.425" fill="#120507" width="106.27" height="3.005"/>
	<rect x="506.454" y="3737.264" fill="#120507" width="124.109" height="3.005"/>
	<rect x="640.73" y="3737.264" fill="#120507" width="106.27" height="3.005"/>
	<rect x="530.624" y="3754.336" fill="#120507" width="216.376" height="3.005"/>
	
		<rect x="745.343" y="3665.043" fill="none" stroke="#221714" stroke-width="2" stroke-miterlimit="10" width="117.518" height="127.85"/>
	
		<rect x="493.602" y="3665.043" fill="none" stroke="#221714" stroke-width="2" stroke-miterlimit="10" width="12.085" height="45.494"/>
	
		<rect x="629.796" y="3665.043" fill="none" stroke="#221714" stroke-width="2" stroke-miterlimit="10" width="12.085" height="90.796"/>
	
		<rect x="862.861" y="3663.54" fill="none" stroke="#221714" stroke-width="2" stroke-miterlimit="10" width="78.647" height="93.801"/>
	
		<rect x="1285.639" y="3706.892" fill="none" stroke="#221714" stroke-width="2" stroke-miterlimit="10" width="61.767" height="93.801"/>
	
		<rect x="1726.577" y="3666.545" fill="none" stroke="#221714" stroke-width="2" stroke-miterlimit="10" width="41.306" height="123.79"/>
	<rect x="941.511" y="3719.424" fill="#120507" width="344.131" height="3.005"/>
	<rect x="941.511" y="3737.264" fill="#120507" width="344.131" height="3.005"/>
	<rect x="941.511" y="3755.839" fill="#120507" width="344.131" height="3.005"/>
	<rect x="1347.406" y="3719.056" fill="#120507" width="379.17" height="3.005"/>
	<rect x="1347.406" y="3736.897" fill="#120507" width="379.17" height="3.005"/>
	<rect x="1347.406" y="3755.472" fill="#120507" width="379.17" height="3.005"/>
	
		<rect x="1767.882" y="3666.545" fill="none" stroke="#221714" stroke-width="2" stroke-miterlimit="10" width="14.962" height="123.79"/>
	
		<rect x="1782.844" y="3777.291" fill="none" stroke="#221714" stroke-width="2" stroke-miterlimit="10" width="239.012" height="13.045"/>
	
		<rect x="1826.069" y="3754.272" fill="none" stroke="#221714" stroke-width="2" stroke-miterlimit="10" width="195.787" height="23.018"/>
	
		<rect x="1835.535" y="3665.041" fill="none" stroke="#221714" stroke-width="2" stroke-miterlimit="10" width="171.234" height="89.229"/>
	<rect x="1849.503" y="3664.799" fill="#120507" width="3.005" height="89.229"/>
	<rect x="1865.052" y="3664.799" fill="#120507" width="3.005" height="89.229"/>
	<rect x="1880.6" y="3664.799" fill="#120507" width="3.005" height="89.229"/>
	<rect x="1911.697" y="3664.799" fill="#120507" width="3.005" height="89.229"/>
	<rect x="1896.148" y="3664.799" fill="#120507" width="3.005" height="89.229"/>
	<rect x="1927.245" y="3664.799" fill="#120507" width="3.005" height="89.229"/>
	<rect x="1942.793" y="3664.799" fill="#120507" width="3.005" height="89.229"/>
	<rect x="1958.342" y="3664.799" fill="#120507" width="3.005" height="89.229"/>
	<rect x="1973.89" y="3664.799" fill="#120507" width="3.005" height="89.229"/>
	<rect x="1989.438" y="3664.799" fill="#120507" width="3.005" height="89.229"/>
	
		<rect x="2096.667" y="3608.231" fill="none" stroke="#221714" stroke-width="2" stroke-miterlimit="10" width="114.071" height="225.584"/>
	
		<rect x="2107.793" y="3631.25" fill="none" stroke="#221714" stroke-width="2" stroke-miterlimit="10" width="78.022" height="178.651"/>
	<rect x="2210.485" y="3719.486" fill="#120507" width="308.194" height="3.005"/>
	<rect x="2210.485" y="3737.647" fill="#120507" width="308.194" height="3.005"/>
	<rect x="2210.485" y="3755.807" fill="#120507" width="308.194" height="3.005"/>
	<rect x="2578.785" y="3720.989" fill="#120507" width="354.615" height="3.005"/>
	<rect x="2578.785" y="3739.149" fill="#120507" width="354.615" height="3.005"/>
	<rect x="2578.785" y="3757.309" fill="#120507" width="354.615" height="3.005"/>
	<rect x="2991.588" y="3719.486" fill="#120507" width="374.564" height="3.005"/>
	<rect x="2991.588" y="3737.646" fill="#120507" width="374.564" height="3.005"/>
	<rect x="2991.588" y="3755.807" fill="#120507" width="374.564" height="3.005"/>
	
		<rect x="2518.678" y="3707.212" fill="none" stroke="#221714" stroke-width="2" stroke-miterlimit="10" width="60.107" height="91.528"/>
	
		<rect x="2933.4" y="3707.212" fill="none" stroke="#221714" stroke-width="2" stroke-miterlimit="10" width="58.189" height="91.528"/>
	
		<rect x="3391.982" y="3665.043" fill="none" stroke="#221714" stroke-width="2" stroke-miterlimit="10" width="103.715" height="147.288"/>
	
		<rect x="3366.152" y="3665.043" fill="none" stroke="#221714" stroke-width="2" stroke-miterlimit="10" width="152.307" height="173.12"/>
	
		<rect x="3518.46" y="3665.043" fill="none" stroke="#221714" stroke-width="2" stroke-miterlimit="10" width="71.486" height="147.288"/>
	
		<rect x="3750.63" y="3665.043" fill="none" stroke="#221714" stroke-width="2" stroke-miterlimit="10" width="26.408" height="58.154"/>
	<rect x="3589.755" y="3682.337" fill="#120507" width="160.874" height="3.005"/>
	<rect x="3589.755" y="3700.498" fill="#120507" width="160.874" height="3.005"/>
	<rect x="3589.755" y="3718.658" fill="#120507" width="160.874" height="3.005"/>
	<g>
		<rect x="4010.743" y="3632.336" fill="#120507" width="246.364" height="3.005"/>
		<rect x="4010.743" y="3806.832" fill="#120507" width="287.286" height="3.005"/>
		<rect x="4010.744" y="3632.335" fill="#120507" width="3.005" height="177.852"/>
		<rect x="4296.527" y="3672.683" fill="#120507" width="3.005" height="137.185"/>
		
			<rect x="4275.791" y="3624.142" transform="matrix(0.6832 -0.7302 0.7302 0.6832 -1312.8367 4280.8047)" fill="#120507" width="3.005" height="58.662"/>
	</g>
	<rect x="4029.926" y="3653.516" fill="#120507" width="220.467" height="2.276"/>
	<rect x="4029.926" y="3785.694" fill="#120507" width="247.986" height="2.276"/>
	<rect x="4029.926" y="3653.515" fill="#120507" width="2.594" height="134.72"/>
	<rect x="4276.615" y="3683.426" fill="#120507" width="2.594" height="104.568"/>
	<polygon fill="#120507" points="4279.097,3683.557 4277.137,3684.99 4248.501,3655.03 4250.461,3653.596 	"/>
	<rect x="4229.964" y="3187.755" fill="#120507" width="3.005" height="478.79"/>
	<rect x="4221.297" y="3363.72" fill="none" stroke="#221714" stroke-miterlimit="10" width="50.548" height="3.133"/>
	<rect x="4221.169" y="3265.251" fill="none" stroke="#221714" stroke-miterlimit="10" width="50.548" height="3.133"/>
	<rect x="4248.858" y="3087.943" fill="none" stroke="#221714" stroke-miterlimit="10" width="47.124" height="3.133"/>
	<rect x="4248.858" y="2997.722" fill="none" stroke="#221714" stroke-miterlimit="10" width="47.124" height="3.133"/>
	<rect x="4243.775" y="3090.253" fill="#120507" width="1.119" height="98.062"/>
	<rect x="4248.683" y="3090.453" fill="#120507" width="1.119" height="102.497"/>
	<rect x="4254.581" y="3090.453" fill="#120507" width="1.119" height="107.437"/>
	<rect x="4232.426" y="3196.771" fill="#120507" width="23.274" height="1.119"/>
	<rect x="4230.38" y="3192.167" fill="#120507" width="19.422" height="1.119"/>
	<rect x="4229.964" y="3187.195" fill="#120507" width="14.93" height="1.119"/>
	<rect x="4243.839" y="3090.252" fill="#120507" width="5.275" height="1.119"/>
	<rect x="4243.775" y="2788.627" fill="#120507" width="1.119" height="210.678"/>
	<rect x="4248.683" y="2785.214" fill="#120507" width="1.119" height="211.923"/>
	<rect x="4254.581" y="2784.191" fill="#120507" width="1.119" height="212.946"/>
	<rect x="4244.335" y="2998.186" fill="#120507" width="4.366" height="1.119"/>
	<polygon fill="none" stroke="#221714" stroke-miterlimit="10" points="4345.675,2277.12 4272.041,2261.389 4258.32,2258.458 
		4258.975,2255.394 4346.329,2274.056 	"/>
	
		<rect x="4291.646" y="2093.057" transform="matrix(0.9779 0.2089 -0.2089 0.9779 533.2996 -859.7194)" fill="none" stroke="#221714" stroke-miterlimit="10" width="89.326" height="3.133"/>
	
		<rect x="4293.177" y="2083.33" transform="matrix(0.9999 -0.0106 0.0106 0.9999 -21.9555 46.3107)" fill="none" stroke="#221714" stroke-miterlimit="10" width="89.326" height="3.133"/>
	
		<rect x="4295.422" y="1907.166" transform="matrix(0.9999 0.0119 -0.0119 0.9999 23.1128 -51.7135)" fill="none" stroke="#221714" stroke-miterlimit="10" width="89.326" height="3.133"/>
	
		<rect x="4294.956" y="1895.673" transform="matrix(0.9826 -0.1857 0.1857 0.9826 -276.7951 838.6877)" fill="none" stroke="#221714" stroke-miterlimit="10" width="89.326" height="3.133"/>
	
		<rect x="4260.687" y="1722.541" transform="matrix(0.9826 -0.1857 0.1857 0.9826 -245.2469 829.3152)" fill="none" stroke="#221714" stroke-miterlimit="10" width="89.326" height="3.133"/>
	<rect x="4254.651" y="787.537" fill="#120507" width="1.119" height="418.814"/>
	<rect x="4248.625" y="793.483" fill="#120507" width="1.119" height="410.246"/>
	<rect x="4243.845" y="798.087" fill="#120507" width="1.119" height="403.43"/>
	<rect x="4221.203" y="798.087" fill="#120507" width="23.202" height="1.119"/>
	<rect x="4232.011" y="787.536" fill="#120507" width="23.738" height="1.119"/>
	<rect x="4226.543" y="793.483" fill="#120507" width="23.201" height="1.119"/>
	<rect x="4232.01" y="730.054" fill="#120507" width="1.119" height="57.787"/>
	<rect x="4225.983" y="730.054" fill="#120507" width="1.119" height="64.548"/>
	<rect x="4221.204" y="727.88" fill="#120507" width="1.119" height="71.326"/>
	<rect x="4221.402" y="727.88" fill="none" stroke="#221714" stroke-miterlimit="10" width="50.667" height="3.133"/>
	<rect x="4221.012" y="629.602" fill="none" stroke="#221714" stroke-miterlimit="10" width="50.667" height="3.133"/>
	<rect x="4221.012" y="480.047" fill="none" stroke="#221714" stroke-miterlimit="10" width="10.353" height="149.556"/>
	<rect x="4221.012" y="480.047" fill="none" stroke="#221714" stroke-miterlimit="10" width="52.016" height="3.133"/>
	<rect x="4219.254" y="381.575" fill="none" stroke="#221714" stroke-miterlimit="10" width="53.966" height="3.133"/>
	<rect x="4230.892" y="330.264" fill="#120507" width="1.58" height="152.917"/>
	<rect x="3299.014" y="3665.043" fill="none" stroke="#221714" stroke-miterlimit="10" width="3.133" height="47.604"/>
	<rect x="3798.906" y="3746.983" fill="#120507" width="214.844" height="3.005"/>
	<rect x="3209.625" y="3665.043" fill="none" stroke="#221714" stroke-miterlimit="10" width="3.133" height="47.604"/>
	<rect x="2830.71" y="3665.043" fill="none" stroke="#221714" stroke-miterlimit="10" width="3.133" height="40.379"/>
	<rect x="2756.73" y="3665.043" fill="none" stroke="#221714" stroke-miterlimit="10" width="3.133" height="40.379"/>
	<rect x="2870.578" y="3665.042" fill="none" stroke="#221714" stroke-miterlimit="10" width="1.567" height="41.53"/>
	<rect x="2720.86" y="3665.043" fill="none" stroke="#221714" stroke-miterlimit="10" width="1.567" height="40.379"/>
	<rect x="1477.846" y="3665.075" fill="none" stroke="#221714" stroke-miterlimit="10" width="3.133" height="47.253"/>
	<rect x="1387.817" y="3665.842" fill="none" stroke="#221714" stroke-miterlimit="10" width="3.133" height="47.253"/>
	<rect x="1167.988" y="3648.386" fill="none" stroke="#221714" stroke-miterlimit="10" width="3.133" height="62.407"/>
	<rect x="1047.971" y="3648.386" fill="none" stroke="#221714" stroke-miterlimit="10" width="3.133" height="61.447"/>
	<rect x="1171.121" y="3648.386" fill="none" stroke="#221714" stroke-miterlimit="10" width="119.505" height="5.179"/>
	<rect x="1171.121" y="3653.566" fill="none" stroke="#221714" stroke-miterlimit="10" width="119.505" height="5.179"/>
	<rect x="1171.121" y="3658.745" fill="none" stroke="#221714" stroke-miterlimit="10" width="119.505" height="5.179"/>
	<g>
		<rect x="930.032" y="3648.386" fill="none" stroke="#221714" stroke-miterlimit="10" width="117.939" height="5.179"/>
		<rect x="930.032" y="3653.565" fill="none" stroke="#221714" stroke-miterlimit="10" width="117.939" height="5.179"/>
		<rect x="930.032" y="3658.745" fill="none" stroke="#221714" stroke-miterlimit="10" width="117.939" height="5.179"/>
	</g>
	<g>
		<rect x="853.271" y="3648.386" fill="none" stroke="#221714" stroke-miterlimit="10" width="26.278" height="5.179"/>
		<rect x="853.271" y="3653.566" fill="none" stroke="#221714" stroke-miterlimit="10" width="26.278" height="5.179"/>
		<rect x="853.271" y="3658.745" fill="none" stroke="#221714" stroke-miterlimit="10" width="26.278" height="5.179"/>
	</g>
	<rect x="851.704" y="3665.043" fill="none" stroke="#221714" stroke-miterlimit="10" width="3.133" height="45.398"/>
	<rect x="761.451" y="3665.043" fill="none" stroke="#221714" stroke-miterlimit="10" width="3.133" height="45.398"/>
	<g>
		<rect x="493.594" y="3648.389" fill="none" stroke="#221714" stroke-miterlimit="10" width="136.962" height="5.179"/>
		<rect x="493.594" y="3653.568" fill="none" stroke="#221714" stroke-miterlimit="10" width="136.962" height="5.179"/>
		<rect x="493.594" y="3658.748" fill="none" stroke="#221714" stroke-miterlimit="10" width="136.962" height="5.179"/>
	</g>
	
		<rect x="474.642" y="3649.156" transform="matrix(0.5716 -0.8205 0.8205 0.5716 -2846.0044 1982.9442)" fill="#120507" width="3.005" height="136.102"/>
	<rect x="419.45" y="3663.54" fill="#120507" width="3.005" height="16.081"/>
	
		<rect x="156.606" y="2700.269" fill="none" stroke="#221714" stroke-width="2" stroke-miterlimit="10" width="270.817" height="965.35"/>
	
		<rect x="139.337" y="2685.434" fill="none" stroke="#221714" stroke-width="2" stroke-miterlimit="10" width="288.086" height="981.111"/>
	
		<rect x="154.794" y="351.715" fill="none" stroke="#221714" stroke-width="2" stroke-miterlimit="10" width="270.817" height="1170.44"/>
	<rect x="139.333" y="1535.519" fill="#120507" width="289.749" height="3.005"/>
	<rect x="3787.588" y="327.571" fill="none" stroke="#221714" stroke-miterlimit="10" width="346.496" height="3.133"/>
	<rect x="3787.588" y="313.734" fill="none" stroke="#221714" stroke-miterlimit="10" width="286.136" height="6.138"/>
	<rect x="3787.588" y="241.352" fill="none" stroke="#221714" stroke-miterlimit="10" width="346.496" height="4.604"/>
	<rect x="3787.588" y="260.023" fill="none" stroke="#221714" stroke-miterlimit="10" width="259.792" height="6.138"/>
	<rect x="3787.588" y="253.885" fill="none" stroke="#221714" stroke-miterlimit="10" width="286.136" height="6.138"/>
	<rect x="3779.403" y="283.042" fill="none" stroke="#221714" stroke-miterlimit="10" width="286.136" height="6.138"/>
	<rect x="3787.588" y="228.564" fill="none" stroke="#221714" stroke-miterlimit="10" width="286.136" height="6.138"/>
	<rect x="3787.588" y="222.426" fill="none" stroke="#221714" stroke-miterlimit="10" width="259.792" height="6.138"/>
	<rect x="3787.588" y="175.365" fill="none" stroke="#221714" stroke-miterlimit="10" width="259.792" height="6.138"/>
	<rect x="3787.588" y="169.227" fill="none" stroke="#221714" stroke-miterlimit="10" width="289.205" height="6.138"/>
	<rect x="3787.587" y="181.504" fill="none" stroke="#221714" stroke-miterlimit="10" width="179.994" height="40.922"/>
	<rect x="3787.587" y="266.161" fill="none" stroke="#221714" stroke-miterlimit="10" width="179.994" height="41.946"/>
	<rect x="3787.588" y="308.107" fill="none" stroke="#221714" stroke-miterlimit="10" width="259.792" height="6.138"/>
	<g>
		<rect x="3792.799" y="266.034" fill="#120507" width="1.119" height="42.713"/>
		<rect x="3808.464" y="266.034" fill="#120507" width="1.119" height="42.713"/>
		<rect x="3824.13" y="266.034" fill="#120507" width="1.119" height="42.713"/>
		<rect x="3839.795" y="266.034" fill="#120507" width="1.119" height="42.713"/>
		<rect x="3855.461" y="266.034" fill="#120507" width="1.119" height="42.713"/>
		<rect x="3871.126" y="266.034" fill="#120507" width="1.119" height="42.713"/>
		<rect x="3886.792" y="266.034" fill="#120507" width="1.119" height="42.713"/>
		<rect x="3902.458" y="266.034" fill="#120507" width="1.119" height="42.713"/>
		<rect x="3918.123" y="266.034" fill="#120507" width="1.119" height="42.713"/>
		<rect x="3933.789" y="266.034" fill="#120507" width="1.119" height="42.713"/>
		<rect x="3949.454" y="266.034" fill="#120507" width="1.119" height="42.713"/>
	</g>
	<g>
		<rect x="3792.239" y="181.504" fill="#120507" width="1.119" height="40.922"/>
		<rect x="3807.905" y="181.504" fill="#120507" width="1.119" height="40.922"/>
		<rect x="3823.571" y="181.504" fill="#120507" width="1.119" height="40.922"/>
		<rect x="3839.236" y="181.504" fill="#120507" width="1.119" height="40.922"/>
		<rect x="3854.902" y="181.504" fill="#120507" width="1.119" height="40.922"/>
		<rect x="3870.567" y="181.504" fill="#120507" width="1.119" height="40.922"/>
		<rect x="3886.233" y="181.504" fill="#120507" width="1.119" height="40.922"/>
		<rect x="3901.898" y="181.504" fill="#120507" width="1.119" height="40.922"/>
		<rect x="3917.564" y="181.504" fill="#120507" width="1.119" height="40.922"/>
		<rect x="3933.229" y="181.504" fill="#120507" width="1.119" height="40.922"/>
		<rect x="3948.895" y="181.504" fill="#120507" width="1.119" height="40.922"/>
	</g>
	
		<rect x="4182.014" y="1174.892" transform="matrix(-0.6932 -0.7208 0.7208 -0.6932 6162.272 5174.9678)" fill="#120507" width="1.119" height="202.035"/>
	
		<rect x="4174.612" y="1171.586" transform="matrix(-0.6932 -0.7208 0.7208 -0.6932 6150.6338 5167.5298)" fill="#120507" width="1.119" height="206.163"/>
	
		<rect x="4169.625" y="1169.206" transform="matrix(-0.6932 -0.7208 0.7208 -0.6932 6143.5122 5160.8281)" fill="#120507" width="1.119" height="207.251"/>
	
		<rect x="4169.452" y="2614.553" transform="matrix(0.6926 -0.7214 0.7214 0.6926 -678.504 3843.6196)" fill="#120507" width="1.119" height="206.53"/>
	
		<rect x="4175.532" y="2613.607" transform="matrix(0.6935 -0.7205 0.7205 0.6935 -676.162 3841.2146)" fill="#120507" width="1.119" height="203.244"/>
	
		<rect x="4181.428" y="2612.88" transform="matrix(0.6937 -0.7203 0.7203 0.6937 -674.0648 3843.6563)" fill="#120507" width="1.119" height="202.905"/>
	
		<rect x="3787" y="3718.882" transform="matrix(0.7606 -0.6492 0.6492 0.7606 -1518.7075 3354.2351)" fill="#120507" width="3.005" height="34.765"/>
	<rect x="504.184" y="3663.54" fill="#120507" width="3.005" height="74.427"/>
	<path fill="none" stroke="#221714" stroke-miterlimit="10" d="M4108.428,2644.46c0,0,123.614-184.61,163.613-383.071"/>
	<path fill="none" stroke="#221714" stroke-miterlimit="10" d="M4102.56,2644.46c0,0,123.613-184.61,163.613-383.071"/>
	<path fill="none" stroke="#221714" stroke-miterlimit="10" d="M4097.202,2642.85c0,0,123.614-184.61,163.613-383.071"/>
	<path fill="none" stroke="#221714" stroke-miterlimit="10" d="M4261.173,1730.86c0,0-25.963-169.566-164.765-386.298"/>
	<path fill="none" stroke="#221714" stroke-miterlimit="10" d="M4266.127,1731.848c0,0-25.963-169.566-164.765-386.298"/>
	<path fill="none" stroke="#221714" stroke-miterlimit="10" d="M4271.461,1728.237c0,0-22.354-166.438-161.155-383.17"/>
	<path fill="none" stroke="#221714" stroke-miterlimit="10" d="M764.584,3710.441c0,0,36.51-1.567,43.8-43.896"/>
	<path fill="none" stroke="#221714" stroke-miterlimit="10" d="M852.183,3710.441c0,0-36.51-1.567-43.8-43.896"/>
	<path fill="none" stroke="#221714" stroke-miterlimit="10" d="M1051.104,3708.938c0,0,50.513,3.772,59.081-58.762"/>
	<path fill="none" stroke="#221714" stroke-miterlimit="10" d="M1167.988,3708.427c0,0-49.235,4.859-57.803-57.675"/>
	<path fill="none" stroke="#221714" stroke-miterlimit="10" d="M1390.95,3712.327c0,0,36.51-1.567,43.8-43.896"/>
	<path fill="none" stroke="#221714" stroke-miterlimit="10" d="M1478.549,3712.327c0,0-36.51-1.567-43.8-43.896"/>
	<path fill="none" stroke="#221714" stroke-miterlimit="10" d="M2759.864,3704.111c0,0,30.308,1.311,35.615-37.565"/>
	<path fill="none" stroke="#221714" stroke-miterlimit="10" d="M2832.277,3704.111c0,0-30.308,1.311-35.615-37.565"/>
	<path fill="none" stroke="#221714" stroke-miterlimit="10" d="M2870.354,3705.743c0,0-31.07,1.31-36.51-37.565"/>
	<path fill="none" stroke="#221714" stroke-miterlimit="10" d="M2721.643,3705.416c0,0,29.818,1.311,35.04-37.565"/>
	<path fill="none" stroke="#221714" stroke-miterlimit="10" d="M3212.758,3712.642c0,0,39.835-1.529,43.384-47.599"/>
	<path fill="none" stroke="#221714" stroke-miterlimit="10" d="M3299.014,3712.642c0,0-39.835-1.529-43.384-47.599"/>
	<path fill="none" stroke="#221714" stroke-miterlimit="10" d="M4271.845,3362.698c0,0-4.38-44.631-50.548-46.823"/>
	<path fill="none" stroke="#221714" stroke-miterlimit="10" d="M4271.845,3269.052c0,0-4.38,44.631-50.548,46.823"/>
	<path fill="none" stroke="#221714" stroke-miterlimit="10" d="M4295.983,3091.076c0,0-4.38-44.631-50.548-46.823"/>
	<path fill="none" stroke="#221714" stroke-miterlimit="10" d="M4295.983,2997.43c0,0-4.38,44.631-50.548,46.823"/>
	<path fill="none" stroke="#221714" stroke-miterlimit="10" d="M4346.329,2274.056c0,0,11.549-80.456-69.529-102.452"/>
	<path fill="none" stroke="#221714" stroke-miterlimit="10" d="M4379.746,2105.487c0,0-13.812,74.494-102.05,66.117"/>
	<path fill="none" stroke="#221714" stroke-miterlimit="10" d="M4383.796,1911.236c0,0-2.9,79.031-89.22,84.019"/>
	<path fill="none" stroke="#221714" stroke-miterlimit="10" d="M4382.111,2082.087c0,0-1.215-81.844-87.535-86.832"/>
	<path fill="none" stroke="#221714" stroke-miterlimit="10" d="M4349.527,1717.879c0,0,8.926,82.292-71.875,101.049"/>
	<path fill="none" stroke="#221714" stroke-miterlimit="10" d="M4383.007,1886.959c0,0-16.561-77.517-105.354-68.032"/>
	<path fill="none" stroke="#221714" stroke-miterlimit="10" d="M4271.62,633.833c0,0-4.38,44.631-50.548,46.823"/>
	<path fill="none" stroke="#221714" stroke-miterlimit="10" d="M4272.009,727.478c0,0-4.38-44.631-50.548-46.823"/>
	<path fill="none" stroke="#221714" stroke-miterlimit="10" d="M4273.22,384.708c0,0-4.59,46.165-50.757,48.357"/>
	<path fill="none" stroke="#221714" stroke-miterlimit="10" d="M4273.4,479.888c0,0-4.38-44.631-50.548-46.823"/>
	<path fill="none" stroke="#221714" stroke-width="2" stroke-miterlimit="10" d="M4255.141,3265.251
		c0,0,633.959-1197.232,16.928-2534.239"/>
	<circle fill="none" stroke="#221714" stroke-width="2" stroke-miterlimit="10" cx="4325.729" cy="3132.286" r="42.777"/>
	<circle fill="none" stroke="#221714" stroke-width="2" stroke-miterlimit="10" cx="4325.729" cy="3132.286" r="34.336"/>
	<g>
		<circle fill="none" stroke="#221714" stroke-width="2" stroke-miterlimit="10" cx="4430.906" cy="2814.603" r="42.777"/>
		<circle fill="none" stroke="#221714" stroke-width="2" stroke-miterlimit="10" cx="4430.906" cy="2814.603" r="34.336"/>
	</g>
	<g>
		<circle fill="none" stroke="#221714" stroke-width="2" stroke-miterlimit="10" cx="4504.459" cy="2488.517" r="42.777"/>
		<circle fill="none" stroke="#221714" stroke-width="2" stroke-miterlimit="10" cx="4504.459" cy="2488.517" r="34.336"/>
	</g>
	<g>
		<circle fill="none" stroke="#221714" stroke-width="2" stroke-miterlimit="10" cx="4538.795" cy="2159.351" r="42.777"/>
		<circle fill="none" stroke="#221714" stroke-width="2" stroke-miterlimit="10" cx="4538.795" cy="2159.351" r="34.336"/>
	</g>
	<g>
		<circle fill="none" stroke="#221714" stroke-width="2" stroke-miterlimit="10" cx="4538.795" cy="1826.599" r="42.777"/>
		<circle fill="none" stroke="#221714" stroke-width="2" stroke-miterlimit="10" cx="4538.795" cy="1826.599" r="34.336"/>
	</g>
	<g>
		<circle fill="none" stroke="#221714" stroke-width="2" stroke-miterlimit="10" cx="4504.459" cy="1493.876" r="42.777"/>
		<circle fill="none" stroke="#221714" stroke-width="2" stroke-miterlimit="10" cx="4504.459" cy="1493.876" r="34.336"/>
	</g>
	<g>
		<circle fill="none" stroke="#221714" stroke-width="2" stroke-miterlimit="10" cx="4430.498" cy="1170.566" r="42.777"/>
		<circle fill="none" stroke="#221714" stroke-width="2" stroke-miterlimit="10" cx="4430.498" cy="1170.566" r="34.336"/>
	</g>
	<g>
		<circle fill="none" stroke="#221714" stroke-width="2" stroke-miterlimit="10" cx="4326.271" cy="854.719" r="42.777"/>
		<circle fill="none" stroke="#221714" stroke-width="2" stroke-miterlimit="10" cx="4326.271" cy="854.719" r="34.336"/>
	</g>
	<circle fill="none" stroke="#221714" stroke-width="8" stroke-miterlimit="10" cx="4352.226" cy="3438.595" r="74.875"/>
	<circle fill="none" stroke="#221714" stroke-width="8" stroke-miterlimit="10" cx="4350.003" cy="545.021" r="74.875"/>
	
		<rect x="4575.441" y="3090.289" transform="matrix(0.9179 0.3967 -0.3967 0.9179 1674.8311 -1625.4114)" fill="none" stroke="#221714" stroke-width="2" stroke-miterlimit="10" width="381.915" height="290.894"/>
	
		<rect x="4638.657" y="3147.489" transform="matrix(0.9179 0.3967 -0.3967 0.9179 1675.5228 -1625.2374)" fill="none" stroke="#221714" stroke-width="2" stroke-miterlimit="10" width="255.334" height="180.014"/>
	<polygon fill="none" stroke="#221714" stroke-width="2" stroke-miterlimit="10" points="4472.479,3664.527 4489.839,3569.847 
		4585.456,3557.315 4627.19,3644.251 4557.367,3710.511 	"/>
	
		<rect x="4580.393" y="3201.822" fill="none" stroke="#221714" stroke-width="2" stroke-miterlimit="10" width="71.358" height="42.201"/>
	
		<rect x="4696.637" y="3199.776" fill="none" stroke="#221714" stroke-width="2" stroke-miterlimit="10" width="180.953" height="42.201"/>
	
		<rect x="4445.349" y="3617.694" fill="none" stroke="#221714" stroke-width="2" stroke-miterlimit="10" width="71.358" height="42.201"/>
	
		<rect x="4123.279" y="3735.71" fill="none" stroke="#221714" stroke-width="2" stroke-miterlimit="10" width="153.335" height="50.675"/>
	<path fill="none" stroke="#221714" stroke-width="2" stroke-miterlimit="10" d="M4299.738,3707.143
		c229.758,28.567,391.912-168.479,298.186-385.771"/>
	<path fill="none" stroke="#221714" stroke-width="2" stroke-miterlimit="10" d="M4299.738,3725.056
		c235.384,27.681,399.092-152.043,324.153-392.462"/>
	<path fill="none" stroke="#221714" stroke-width="2" stroke-miterlimit="10" d="M4299.738,3744.474
		c235.384,27.681,420.23-162.325,345.291-402.743"/>
	<path fill="none" stroke="#221714" stroke-width="2" stroke-miterlimit="10" d="M4298.029,3761.047
		c238.116,30.311,434.031-158.443,368.3-411.01"/>
	
		<rect x="4637.096" y="656.602" transform="matrix(0.9219 -0.3873 0.3873 0.9219 81.9386 1904.7201)" fill="none" stroke="#221714" stroke-width="2" stroke-miterlimit="10" width="258.655" height="184.951"/>
	
		<rect x="4573.639" y="605.335" transform="matrix(0.9219 -0.3873 0.3873 0.9219 80.262 1904.7168)" fill="none" stroke="#221714" stroke-width="2" stroke-miterlimit="10" width="383.877" height="295.799"/>
	
		<line fill="none" stroke="#221714" stroke-width="2" stroke-miterlimit="10" x1="4608.303" y1="260.023" x2="4433.12" y2="260.023"/>
	
		<line fill="none" stroke="#221714" stroke-width="2" stroke-miterlimit="10" x1="4627.293" y1="243.654" x2="4416.768" y2="243.654"/>
	
		<line fill="none" stroke="#221714" stroke-width="2" stroke-miterlimit="10" x1="4591.422" y1="279.205" x2="4452.398" y2="279.205"/>
	
		<line fill="none" stroke="#221714" stroke-width="2" stroke-miterlimit="10" x1="4417.494" y1="351.938" x2="4417.494" y2="242.088"/>
	
		<line fill="none" stroke="#221714" stroke-width="2" stroke-miterlimit="10" x1="4433.863" y1="351.938" x2="4433.863" y2="258.584"/>
	
		<line fill="none" stroke="#221714" stroke-width="2" stroke-miterlimit="10" x1="4453.045" y1="351.938" x2="4453.045" y2="277.671"/>
	
		<line fill="none" stroke="#221714" stroke-width="2" stroke-miterlimit="10" x1="4417.494" y1="334.451" x2="4231.682" y2="334.451"/>
	
		<line fill="none" stroke="#221714" stroke-width="2" stroke-miterlimit="10" x1="4453.598" y1="351.331" x2="4231.682" y2="351.331"/>
	<path fill="none" stroke="#221714" stroke-width="2" stroke-miterlimit="10" d="M4590.112,279.205v97.958
		c0,0,91.947,114.966,31.589,276.097"/>
	
		<line fill="none" stroke="#221714" stroke-width="2" stroke-miterlimit="10" x1="4606.864" y1="372.5" x2="4606.864" y2="260.023"/>
	
		<line fill="none" stroke="#221714" stroke-width="2" stroke-miterlimit="10" x1="4625.695" y1="369.554" x2="4625.695" y2="242.951"/>
	<path fill="none" stroke="#221714" stroke-width="2" stroke-miterlimit="10" d="M4606.864,273.809v97.958
		c0,0,90.413,108.121,35.367,274.154"/>
	<path fill="none" stroke="#221714" stroke-width="2" stroke-miterlimit="10" d="M4625.695,270.793v97.958
		c0,0,77.72,94.094,42.169,263.537"/>
	<path fill="none" stroke="#221714" stroke-width="2" stroke-miterlimit="10" d="M4659.441,3031.06
		c0,0,366.749-1045.908,2.386-2073.812"/>
	<path fill="none" stroke="#221714" stroke-width="2" stroke-miterlimit="10" d="M4676.939,3038.035
		c0,0,344.646-954.274,48.855-1929.77"/>
	<path fill="none" stroke="#221714" stroke-width="2" stroke-miterlimit="10" d="M4694.067,3046.025
		c0,0,344.271-968.786,48.48-1944.282"/>
	<path fill="none" stroke="#221714" stroke-width="2" stroke-miterlimit="10" d="M4709.538,3052.711
		c0,0,347.566-984.297,51.774-1959.792"/>
	
		<line fill="none" stroke="#221714" stroke-width="2" stroke-miterlimit="10" x1="5066.828" y1="964.995" x2="4999.82" y2="813.134"/>
	
		<line fill="none" stroke="#221714" stroke-width="2" stroke-miterlimit="10" x1="5065.325" y1="963.986" x2="4711.12" y2="1114.979"/>
	<rect x="380.144" y="2675.15" fill="none" stroke="#221714" stroke-miterlimit="10" width="50.13" height="2.563"/>
	<rect x="380.914" y="2576.99" fill="none" stroke="#221714" stroke-miterlimit="10" width="49.359" height="2.563"/>
	<path fill="none" stroke="#221714" stroke-miterlimit="10" d="M381.633,2579.553c0,0-3.03,41.314,47.202,48.322"/>
	<path fill="none" stroke="#221714" stroke-miterlimit="10" d="M382.044,2675.15c0,0-3.903-40.268,46.329-47.276"/>
	<rect x="383.406" y="2476.632" fill="none" stroke="#221714" stroke-miterlimit="10" width="56.268" height="2.862"/>
	<rect x="384.271" y="2367.008" fill="none" stroke="#221714" stroke-miterlimit="10" width="55.403" height="2.862"/>
	<path fill="none" stroke="#221714" stroke-miterlimit="10" d="M385.078,2369.87c0,0-3.401,46.139,52.982,53.965"/>
	<path fill="none" stroke="#221714" stroke-miterlimit="10" d="M385.539,2476.632c0,0-4.381-44.971,52.002-52.797"/>
	<rect x="389.337" y="1634.948" fill="none" stroke="#221714" stroke-miterlimit="10" width="50.514" height="2.556"/>
	<rect x="390.113" y="1537.022" fill="none" stroke="#221714" stroke-miterlimit="10" width="49.737" height="2.556"/>
	<path fill="none" stroke="#221714" stroke-miterlimit="10" d="M390.838,1539.578c0,0-3.054,41.216,47.563,48.207"/>
	<path fill="none" stroke="#221714" stroke-miterlimit="10" d="M391.251,1634.948c0,0-3.933-40.172,46.684-47.164"/>
	
		<rect x="423.564" y="2479.992" fill="none" stroke="#221714" stroke-width="2" stroke-miterlimit="10" width="16.111" height="96.999"/>
	
		<rect x="423.564" y="2128.508" fill="none" stroke="#221714" stroke-width="2" stroke-miterlimit="10" width="16.111" height="236.518"/>
	<rect x="430.449" y="2128.506" fill="none" stroke="#221714" stroke-miterlimit="10" width="4.024" height="236.52"/>
	<rect x="373.904" y="2124.655" fill="none" stroke="#221714" stroke-miterlimit="10" width="65.77" height="2.862"/>
	<rect x="373.904" y="1983.617" fill="none" stroke="#221714" stroke-miterlimit="10" width="65.77" height="2.862"/>
	
		<rect x="422.883" y="1637.508" fill="none" stroke="#221714" stroke-width="2" stroke-miterlimit="10" width="16.111" height="345.598"/>
	<rect x="429.768" y="1637.505" fill="none" stroke="#221714" stroke-miterlimit="10" width="4.024" height="345.601"/>
	
		<rect x="4577.068" y="741.115" fill="none" stroke="#221714" stroke-width="2" stroke-miterlimit="10" width="72.637" height="42.457"/>
	<g>
		<rect x="288.7" y="394.811" fill="#120507" width="3.005" height="991.342"/>
		<polyline fill="#120507" points="290.203,376.907 221.916,418.341 232.914,437.523 290.203,399.415 350.821,432.92 
			361.819,415.272 		"/>
	</g>
	<g>
		<rect x="300.082" y="2807.242" fill="#120507" width="3.005" height="859.304"/>
		<polyline fill="#120507" points="301.584,2789.338 233.298,2830.772 244.296,2849.954 301.584,2811.845 362.203,2845.351 
			373.201,2827.703 		"/>
	</g>
	
		<ellipse fill="none" stroke="#221714" stroke-width="2" stroke-miterlimit="10" cx="3776.532" cy="1998.008" rx="302.313" ry="599.117"/>
	
		<ellipse fill="none" stroke="#221714" stroke-width="2" stroke-miterlimit="10" cx="3776.532" cy="1998.008" rx="319.64" ry="613.696"/>
	<rect x="3732.343" y="330.093" fill="none" stroke="#221714" stroke-miterlimit="10" width="259.792" height="6.138"/>
	<rect x="3732.343" y="341.132" fill="none" stroke="#221714" stroke-miterlimit="10" width="449.441" height="38.589"/>
	<rect x="3722.368" y="332.037" fill="none" stroke="#221714" stroke-miterlimit="10" width="470.158" height="56.124"/>
	<line fill="none" stroke="#221714" stroke-miterlimit="10" x1="4192.526" y1="342.891" x2="4219.253" y2="342.891"/>
	<line fill="none" stroke="#221714" stroke-miterlimit="10" x1="4219.255" y1="342.218" x2="4219.255" y2="385.187"/>
</g>
</svg>
